<svg width="18" height="19" viewBox="0 0 18 19" fill="none" xmlns="http://www.w3.org/2000/svg">
<g clip-path="url(#clip0_1687_4480)">
<path d="M18 6.66053L16.7201 6.84039C15.6001 3.40868 12.3788 0.927671 8.57303 0.927109C3.83769 0.927671 0.00028125 4.76484 0 9.49986C0.00028125 14.2352 3.83769 18.0726 8.57303 18.0729C8.82513 18.0729 9.07608 18.0621 9.32446 18.0403L9.15173 16.0518H9.15145C8.96161 16.0681 8.76888 16.0764 8.57303 16.0764C6.75352 16.0758 5.11618 15.3421 3.92249 14.1504C2.73083 12.9567 1.99677 11.319 1.99652 9.49986C1.9968 7.68062 2.73083 6.04298 3.92249 4.8496C5.11618 3.65791 6.75352 2.92419 8.57303 2.9236C10.3922 2.92419 12.0299 3.65791 13.2232 4.8496C13.8645 5.49169 14.367 6.26569 14.7002 7.12421L13.6067 7.27805L16.4277 11.4002L17.0581 9.49986H17.1455C17.1455 9.42276 17.1363 9.34795 17.1341 9.27113L18 6.66053Z" fill="#009FF4"/>
<path d="M14.0279 13.1765C13.9205 13.3359 13.8052 13.4909 13.6836 13.6419L15.2356 14.8973C15.3926 14.7031 15.5419 14.5024 15.6827 14.2937L14.0285 13.1765H14.0279Z" fill="#009FF4"/>
<path d="M11.19 15.5359C10.8708 15.6744 10.5382 15.788 10.1953 15.8751L10.6853 17.8108C11.1338 17.6972 11.568 17.5481 11.9848 17.3671L11.19 15.5362V15.5359Z" fill="#009FF4"/>
<path d="M12.1172 15.0403L13.1953 16.7211C13.5818 16.4735 13.9467 16.1954 14.287 15.8908L12.956 14.403C12.6942 14.6369 12.4141 14.8504 12.1172 15.0403Z" fill="#009FF4"/>
<path d="M7.59054 9.37168C7.90688 9.0114 8.09844 8.63709 8.09844 8.15914C8.09844 7.34977 7.51773 6.7325 6.56215 6.7325C5.59859 6.7325 5.03957 7.33522 4.98817 8.02639C4.98047 8.07065 5.00332 8.10749 5.04727 8.11491L5.85551 8.24678C5.90747 8.2542 5.93633 8.23223 5.93633 8.188C5.98028 7.80568 6.187 7.59984 6.52474 7.59984C6.87047 7.59984 7.06889 7.84284 7.06889 8.17341C7.06889 8.4304 6.96585 8.64363 6.77513 8.8649L5.01787 10.9525C4.98817 10.9893 4.98047 11.011 4.98047 11.0553V11.739C4.98047 11.7833 5.01014 11.8124 5.05412 11.8124H8.02475C8.06873 11.8124 8.09844 11.7833 8.09844 11.739V11.011C8.09844 10.9673 8.06873 10.9379 8.02475 10.9379H6.27492V10.9231L7.59054 9.37168Z" fill="#009FF4"/>
<path d="M12.4799 11.0847C12.5234 11.0847 12.5528 11.0553 12.5528 11.011V10.269C12.5528 10.2247 12.5234 10.195 12.4799 10.195H12.1491L12.1048 10.1508V9.07042C12.1048 9.02647 12.0754 8.99676 12.0311 8.99676H11.1786C11.1344 8.99676 11.1047 9.02644 11.1047 9.07042V10.1508L11.0607 10.195H10.1422V10.173L11.6412 6.8869C11.656 6.84263 11.6412 6.81293 11.5903 6.81293H10.6559C10.6047 6.81293 10.5754 6.82776 10.5537 6.87206L9.05362 10.173L9.03906 10.2615V11.011C9.03906 11.0552 9.06845 11.0847 9.11275 11.0847H11.0607L11.1047 11.1289V11.739C11.1047 11.7832 11.1344 11.8124 11.1786 11.8124H12.0311C12.0754 11.8124 12.1048 11.7832 12.1048 11.739V11.1289L12.1491 11.0847H12.4799Z" fill="#009FF4"/>
</g>
<defs>
<clipPath id="clip0_1687_4480">
<rect width="18" height="18" fill="white" transform="translate(0 0.5)"/>
</clipPath>
</defs>
</svg>
