<svg width="20" height="15" viewBox="0 0 20 15" fill="none" xmlns="http://www.w3.org/2000/svg">
<path d="M18.6801 5.42857C17.4354 3.40128 14.6039 0 9.63439 0C4.66489 0 1.83342 3.40128 0.58864 5.42857C0.203831 6.05097 0 6.76825 0 7.5C0 8.23175 0.203831 8.94903 0.58864 9.57143C1.83342 11.5987 4.66489 15 9.63439 15C14.6039 15 17.4354 11.5987 18.6801 9.57143C19.0649 8.94903 19.2688 8.23175 19.2688 7.5C19.2688 6.76825 19.0649 6.05097 18.6801 5.42857ZM17.3118 8.73114C16.2427 10.4695 13.823 13.3949 9.63439 13.3949C5.44578 13.3949 3.02604 10.4695 1.95702 8.73114C1.7284 8.36119 1.6073 7.93489 1.6073 7.5C1.6073 7.06511 1.7284 6.63881 1.95702 6.26886C3.02604 4.5305 5.44578 1.60514 9.63439 1.60514C13.823 1.60514 16.2427 4.52729 17.3118 6.26886C17.5404 6.63881 17.6615 7.06511 17.6615 7.5C17.6615 7.93489 17.5404 8.36119 17.3118 8.73114Z" fill="black"/>
<path d="M9.63394 3.48828C8.84027 3.48828 8.06443 3.72363 7.40452 4.16457C6.74461 4.6055 6.23028 5.23222 5.92655 5.96548C5.62283 6.69873 5.54336 7.50557 5.6982 8.28399C5.85304 9.0624 6.23522 9.77742 6.79643 10.3386C7.35764 10.8998 8.07266 11.282 8.85107 11.4369C9.62949 11.5917 10.4363 11.5122 11.1696 11.2085C11.9028 10.9048 12.5296 10.3904 12.9705 9.73054C13.4114 9.07063 13.6468 8.29479 13.6468 7.50112C13.6455 6.43724 13.2223 5.4173 12.47 4.66502C11.7178 3.91275 10.6978 3.48956 9.63394 3.48828ZM9.63394 9.90883C9.15774 9.90883 8.69223 9.76762 8.29629 9.50306C7.90034 9.23849 7.59174 8.86246 7.40951 8.42251C7.22727 7.98256 7.17959 7.49845 7.2725 7.0314C7.3654 6.56435 7.59471 6.13534 7.93143 5.79862C8.26816 5.46189 8.69717 5.23258 9.16422 5.13968C9.63127 5.04678 10.1154 5.09446 10.5553 5.27669C10.9953 5.45893 11.3713 5.76753 11.6359 6.16347C11.9004 6.55942 12.0416 7.02492 12.0416 7.50112C12.0416 8.13969 11.788 8.7521 11.3364 9.20363C10.8849 9.65516 10.2725 9.90883 9.63394 9.90883Z" fill="black"/>
</svg>
