<svg width="24" height="24" viewBox="0 0 24 24" fill="none" xmlns="http://www.w3.org/2000/svg">
<path d="M1 2.5C1 1.119 2.119 0 3.5 0C4.881 0 6 1.119 6 2.5C6 3.881 4.881 5 3.5 5C2.119 5 1 3.881 1 2.5ZM23.974 18.044C23.849 17.506 23.314 17.169 22.774 17.295L14.979 19.099L11.975 5.781C11.853 5.242 11.319 4.903 10.779 5.025C10.24 5.147 9.902 5.682 10.024 6.22L11.102 11H8.618L7.248 8.261C6.551 6.866 5.149 6 3.59 6C1.611 6 0 7.61 0 9.604L0.053 13.384C0.073 14.777 0.797 16.037 1.991 16.755L4.515 18.275C4.814 18.454 4.999 18.783 4.999 19.131V23C4.999 23.553 5.447 24 5.999 24C6.551 24 6.999 23.553 6.999 23V19.131C6.999 18.084 6.442 17.099 5.545 16.561L3.021 15.042C2.424 14.683 2.062 14.052 2.052 13.356L1.999 9.589C1.999 8.712 2.712 7.999 3.589 7.999C3.729 7.999 3.866 8.013 3.999 8.039V12.999C3.999 13.552 4.447 13.999 4.999 13.999C5.551 13.999 5.999 13.552 5.999 12.999V10.235L6.828 11.893C7.169 12.575 7.854 12.998 8.617 12.998H11.552L12.921 19.066C11.819 19.327 10.999 20.316 10.999 21.498C10.999 22.879 12.118 23.998 13.499 23.998C14.88 23.998 15.999 22.879 15.999 21.498C15.999 21.302 15.976 21.112 15.933 20.929L23.224 19.242C23.762 19.117 24.097 18.58 23.973 18.042L23.974 18.044ZM2 19C1.448 19 1 19.447 1 20V23C1 23.553 1.448 24 2 24C2.552 24 3 23.553 3 23V20C3 19.447 2.552 19 2 19ZM15.067 11.749C14.751 10.398 15.59 9.04 16.939 8.721L19.714 8.061C20.372 7.905 21.049 8.014 21.623 8.37C22.197 8.724 22.598 9.282 22.752 9.938L23.42 12.79C23.736 14.141 22.897 15.499 21.548 15.818L18.773 16.478C18.578 16.525 18.381 16.547 18.186 16.547C17.723 16.547 17.268 16.419 16.865 16.169C16.291 15.815 15.89 15.257 15.736 14.6L15.067 11.749ZM17.014 11.292L17.682 14.143C17.714 14.28 17.797 14.395 17.916 14.468C18.034 14.541 18.174 14.562 18.311 14.532L21.086 13.872C21.365 13.806 21.539 13.524 21.473 13.246L20.805 10.394C20.773 10.258 20.69 10.143 20.572 10.07C20.453 9.997 20.311 9.976 20.176 10.006L17.401 10.666C17.122 10.732 16.948 11.014 17.014 11.292Z" fill="black"/>
</svg>
