<svg width="18" height="24" viewBox="0 0 18 24" fill="none" xmlns="http://www.w3.org/2000/svg">
<path d="M12.9999 0H4.99995C3.67437 0.00158784 2.40353 0.528876 1.4662 1.4662C0.528876 2.40353 0.00158784 3.67437 0 4.99995V22.9998C0.000140884 23.1816 0.0498859 23.36 0.14388 23.5158C0.237874 23.6715 0.372558 23.7986 0.533432 23.8835C0.694307 23.9683 0.875279 24.0077 1.05687 23.9974C1.23846 23.987 1.41379 23.9273 1.56398 23.8248L3.66996 22.3858L5.77594 23.8248C5.94233 23.9387 6.13927 23.9997 6.34093 23.9997C6.54259 23.9997 6.73954 23.9387 6.90593 23.8248L9.00591 22.3858L11.1059 23.8248C11.2724 23.9389 11.4695 24 11.6714 24C11.8732 24 12.0704 23.9389 12.2369 23.8248L14.3368 22.3868L16.4368 23.8237C16.5869 23.926 16.7621 23.9855 16.9434 23.9957C17.1248 24.0059 17.3055 23.9666 17.4662 23.8819C17.6269 23.7972 17.7614 23.6703 17.8554 23.5149C17.9495 23.3595 17.9994 23.1814 17.9998 22.9998V4.99995C17.9982 3.67437 17.4709 2.40353 16.5336 1.4662C15.5963 0.528876 14.3254 0.00158784 12.9999 0ZM15.9998 21.0998L14.8998 20.3478C14.7333 20.2334 14.5359 20.1722 14.3338 20.1722C14.1318 20.1722 13.9344 20.2334 13.7679 20.3478L11.6679 21.7868L9.5679 20.3478C9.40141 20.2336 9.20427 20.1725 9.00241 20.1725C8.80054 20.1725 8.6034 20.2336 8.43691 20.3478L6.33693 21.7868L4.23696 20.3478C4.07067 20.2341 3.87391 20.1732 3.67246 20.1732C3.47101 20.1732 3.27425 20.2341 3.10797 20.3478L1.99998 21.0998V4.99995C1.99998 4.20431 2.31605 3.44125 2.87865 2.87865C3.44125 2.31605 4.20431 1.99998 4.99995 1.99998H12.9999C13.7955 1.99998 14.5586 2.31605 15.1212 2.87865C15.6838 3.44125 15.9998 4.20431 15.9998 4.99995V21.0998Z" fill="black"/>
<path d="M12.9999 8H4.99999C4.44771 8 4 8.44771 4 8.99999C4 9.55227 4.44771 9.99998 4.99999 9.99998H12.9999C13.5522 9.99998 13.9999 9.55227 13.9999 8.99999C13.9999 8.44771 13.5522 8 12.9999 8Z" fill="black"/>
<path d="M10.9999 12H4.99999C4.44771 12 4 12.4477 4 13C4 13.5523 4.44771 14 4.99999 14H10.9999C11.5522 14 11.9999 13.5523 11.9999 13C11.9999 12.4477 11.5522 12 10.9999 12Z" fill="black"/>
</svg>
