<svg width="21" height="20" viewBox="0 0 21 20" fill="none" xmlns="http://www.w3.org/2000/svg">
<g clip-path="url(#clip0_1424_2802)">
<path d="M20.3684 9.99928C20.3684 4.5491 15.9502 0.130859 10.5 0.130859V3.09139C14.3151 3.09139 17.4079 6.18415 17.4079 9.99928H20.3684Z" fill="#009FF4" fill-opacity="0.6"/>
<path d="M20.3705 10H17.41C17.41 11.9076 16.6368 13.6345 15.3867 14.8846L17.4801 16.978C19.2659 15.1922 20.3705 12.7251 20.3705 10Z" fill="#009FF4" fill-opacity="0.3"/>
<path d="M15.3839 14.8839L17.4773 16.9773C15.6915 18.7631 13.2243 19.8677 10.4993 19.8677C5.0491 19.8677 0.630859 15.4495 0.630859 9.99928C0.630859 4.5491 5.0491 0.130859 10.4993 0.130859V3.09139C6.68415 3.09139 3.59139 6.18415 3.59139 9.99928C3.59139 13.8144 6.68415 16.9072 10.4993 16.9072C12.4068 16.9072 14.1338 16.134 15.3839 14.8839ZM10.9532 14.0348V15.2542H10.1243V14.07C9.31877 14.0663 8.56877 13.8893 7.87428 13.539V11.9384C8.10496 12.1333 8.44818 12.3141 8.904 12.4806C9.35977 12.6471 9.76655 12.7427 10.1243 12.7674V10.5822C9.21145 10.2479 8.58851 9.8852 8.25545 9.49417C7.92239 9.10313 7.75586 8.62698 7.75586 8.06571C7.75586 7.46127 7.97232 6.94653 8.4053 6.5216C8.83828 6.09662 9.41129 5.84961 10.1243 5.78053V4.71474H10.9532V5.7565C11.7464 5.79474 12.3385 5.92362 12.7295 6.1432V7.67527C12.2028 7.35208 11.6107 7.15471 10.9532 7.08316V9.33874C11.7982 9.64096 12.4042 9.98665 12.7712 10.3758C13.1381 10.765 13.3217 11.2353 13.3217 11.7867C13.3217 12.4232 13.1172 12.9361 12.7083 13.3252C12.2993 13.7144 11.7143 13.951 10.9532 14.0348ZM10.1243 8.99828V7.10724C9.57165 7.20716 9.29533 7.49517 9.29533 7.97132C9.29533 8.38209 9.57165 8.72443 10.1243 8.99828ZM10.9532 10.9133V12.7452C11.5059 12.6564 11.7822 12.3683 11.7822 11.8811C11.7822 11.4864 11.5059 11.1638 10.9532 10.9133Z" fill="#009FF4"/>
</g>
<defs>
<clipPath id="clip0_1424_2802">
<rect width="20" height="20" fill="white" transform="translate(0.5)"/>
</clipPath>
</defs>
</svg>
