<svg width="21" height="23" viewBox="0 0 21 23" fill="none" xmlns="http://www.w3.org/2000/svg">
<g clip-path="url(#clip0_2081_7985)">
<path d="M6.32598 15.6798C5.97638 15.6798 5.69291 15.4249 5.69291 15.1105C5.69291 14.7962 5.97638 14.5413 6.32598 14.5413H11.0315C11.3811 14.5413 11.6646 14.7962 11.6646 15.1105C11.6646 15.4249 11.3811 15.6798 11.0315 15.6798H6.32598ZM6.32598 7.62537C5.97638 7.62537 5.69291 7.37048 5.69291 7.05612C5.69291 6.74176 5.97638 6.48687 6.32598 6.48687H14.674C15.0236 6.48687 15.3071 6.74176 15.3071 7.05612C15.3071 7.37048 15.0236 7.62537 14.674 7.62537H6.32598ZM1.46929 0H19.5307C19.937 0 20.3055 0.148684 20.5701 0.386579C20.8346 0.624473 21 0.955826 21 1.32116V20.8413C21 21.2066 20.8346 21.5379 20.5701 21.7758C20.3055 22.0137 19.937 22.1624 19.5307 22.1624H1.46929C1.06299 22.1624 0.694488 22.0137 0.429921 21.7758C0.165354 21.5379 0 21.2066 0 20.8413V1.32116C0 0.955826 0.165354 0.624473 0.429921 0.386579C0.694488 0.148684 1.06299 0 1.46929 0ZM19.5307 1.13849H1.46929C1.4126 1.13849 1.36063 1.15974 1.32283 1.19372C1.28504 1.22771 1.26142 1.27443 1.26142 1.32541V20.8455C1.26142 20.8965 1.28504 20.9432 1.32283 20.9772C1.36063 21.0112 1.4126 21.0324 1.46929 21.0324H19.5307C19.5874 21.0324 19.6394 21.0112 19.6772 20.9772C19.715 20.9432 19.7386 20.8965 19.7386 20.8455V1.32541C19.7386 1.27443 19.715 1.22771 19.6772 1.19372C19.6394 1.15974 19.5874 1.13849 19.5307 1.13849ZM6.32598 11.6526C5.97638 11.6526 5.69291 11.3977 5.69291 11.0833C5.69291 10.769 5.97638 10.5141 6.32598 10.5141H14.674C15.0236 10.5141 15.3071 10.769 15.3071 11.0833C15.3071 11.3977 15.0236 11.6526 14.674 11.6526H6.32598Z" fill="black"/>
</g>
<defs>
<clipPath id="clip0_2081_7985">
<rect width="21" height="22.1667" fill="white"/>
</clipPath>
</defs>
</svg>
