<svg width="24" height="24" viewBox="0 0 24 24" fill="none" xmlns="http://www.w3.org/2000/svg">
<path d="M3 0C1.346 0 0 1.346 0 3V12.343C0 13.679 0.521 14.935 1.465 15.879L2.293 16.707C2.488 16.902 2.744 17 3 17C3.256 17 3.512 16.902 3.707 16.707L4.535 15.879C5.479 14.935 6 13.679 6 12.343V3C6 1.346 4.654 0 3 0ZM4 12.343C4 13.145 3.687 13.899 3.121 14.465L3 14.586L2.879 14.465C2.313 13.899 2 13.145 2 12.343V3C2 2.448 2.448 2 3 2C3.552 2 4 2.448 4 3V12.343ZM22.535 3.121L20.879 1.465C19.935 0.521 18.679 0 17.343 0H12C9.794 0 8 1.794 8 4V10C8 10.553 8.447 11 9 11C9.553 11 10 10.553 10 10V4C10 2.897 10.897 2 12 2H17V5C17 6.103 17.897 7 19 7H22V19C22 19.553 22.447 20 23 20C23.553 20 24 19.553 24 19V6.657C24 5.321 23.479 4.065 22.535 3.121ZM19 2.499C19.165 2.609 19.321 2.736 19.465 2.879L21.121 4.535C21.265 4.679 21.391 4.834 21.501 5H19V2.499ZM17 13H10C8.346 13 7 14.346 7 16V21C7 22.654 8.346 24 10 24H17C18.654 24 20 22.654 20 21V16C20 14.346 18.654 13 17 13ZM17 15C17.025 15 17.047 15.013 17.071 15.014L14.465 17.62C13.932 18.153 13.067 18.153 12.533 17.62L9.927 15.014C9.952 15.012 9.973 15 9.998 15H16.998H17ZM17 22H10C9.448 22 9 21.552 9 21V16.914L11.12 19.034C11.756 19.67 12.6 20.02 13.5 20.02C14.4 20.02 15.244 19.669 15.88 19.034L18 16.914V21C18 21.552 17.552 22 17 22Z" fill="black"/>
</svg>
