<svg width="24" height="24" viewBox="0 0 24 24" fill="none" xmlns="http://www.w3.org/2000/svg">
<path d="M24 8C24 7.907 23.987 7.814 23.962 7.725L22.79 3.626C22.18 1.491 20.202 0 17.982 0H6.017C3.797 0 1.82 1.491 1.209 3.626L0.039 7.725C0.014 7.814 0 7.907 0 8C0 9.012 0.378 9.937 1 10.643V20C1 22.206 2.794 24 5 24H11C13.206 24 15 22.206 15 20V11.463C15.376 11.245 15.714 10.967 16 10.643C16.733 11.475 17.806 12 19 12H20C20.345 12 20.68 11.956 21 11.873V23C21 23.552 21.447 24 22 24C22.553 24 23 23.552 23 23V10.643C23.622 9.938 24 9.012 24 8ZM11 22H5C3.897 22 3 21.103 3 20V18H13V20C13 21.103 12.103 22 11 22ZM13 16H3V11.873C3.32 11.956 3.655 12 4 12H5C6.194 12 7.266 11.474 8 10.643C8.734 11.475 9.806 12 11 12H13V16ZM19 10C17.897 10 17 9.103 17 8C17 7.448 16.553 7 16 7C15.447 7 15 7.448 15 8C15 9.103 14.103 10 13 10H11C9.897 10 9 9.103 9 8C9 7.448 8.552 7 8 7C7.448 7 7 7.448 7 8C7 9.103 6.103 10 5 10H4C3.51 10 3.06 9.822 2.712 9.529C2.683 9.5 2.653 9.473 2.621 9.447C2.267 9.11 2.036 8.645 2.004 8.127L3.132 4.176C3.498 2.895 4.684 2 6.017 2H7V4C7 4.552 7.448 5 8 5C8.552 5 9 4.552 9 4V2H15V4C15 4.552 15.447 5 16 5C16.553 5 17 4.552 17 4V2H17.982C19.314 2 20.501 2.895 20.867 4.176L21.996 8.127C21.931 9.171 21.06 10.001 20 10.001H19V10Z" fill="#1D2939"/>
</svg>
