<svg width="15" height="15" viewBox="0 0 15 15" fill="none" xmlns="http://www.w3.org/2000/svg">
<path d="M11.2416 1.77723H10.6816V1.21723C10.6816 1.06871 10.6226 0.926267 10.5175 0.821247C10.4125 0.716226 10.2701 0.657227 10.1216 0.657227C9.97304 0.657227 9.8306 0.716226 9.72558 0.821247C9.62056 0.926267 9.56156 1.06871 9.56156 1.21723V1.77723H5.08156V1.21723C5.08156 1.06871 5.02256 0.926267 4.91754 0.821247C4.81252 0.716226 4.67008 0.657227 4.52156 0.657227C4.37304 0.657227 4.2306 0.716226 4.12558 0.821247C4.02056 0.926267 3.96156 1.06871 3.96156 1.21723V1.77723H3.40156C2.65923 1.77812 1.94755 2.0734 1.42265 2.59831C0.897736 3.12322 0.602452 3.83489 0.601563 4.57723L0.601562 11.2972C0.602452 12.0396 0.897736 12.7512 1.42265 13.2761C1.94755 13.8011 2.65923 14.0963 3.40156 14.0972H11.2416C11.9839 14.0963 12.6956 13.8011 13.2205 13.2761C13.7454 12.7512 14.0407 12.0396 14.0416 11.2972V4.57723C14.0407 3.83489 13.7454 3.12322 13.2205 2.59831C12.6956 2.0734 11.9839 1.77812 11.2416 1.77723ZM1.72156 4.57723C1.72156 4.13166 1.89856 3.70435 2.21362 3.38929C2.52868 3.07423 2.956 2.89723 3.40156 2.89723H11.2416C11.6871 2.89723 12.1144 3.07423 12.4295 3.38929C12.7446 3.70435 12.9216 4.13166 12.9216 4.57723V5.13723H1.72156V4.57723ZM11.2416 12.9772H3.40156C2.956 12.9772 2.52868 12.8002 2.21362 12.4852C1.89856 12.1701 1.72156 11.7428 1.72156 11.2972V6.25723H12.9216V11.2972C12.9216 11.7428 12.7446 12.1701 12.4295 12.4852C12.1144 12.8002 11.6871 12.9772 11.2416 12.9772Z" fill="black"/>
<path d="M7.32438 9.8968C7.78829 9.8968 8.16438 9.52072 8.16438 9.0568C8.16438 8.59288 7.78829 8.2168 7.32438 8.2168C6.86046 8.2168 6.48438 8.59288 6.48438 9.0568C6.48438 9.52072 6.86046 9.8968 7.32438 9.8968Z" fill="black"/>
<path d="M4.51969 9.8968C4.98361 9.8968 5.35969 9.52072 5.35969 9.0568C5.35969 8.59288 4.98361 8.2168 4.51969 8.2168C4.05577 8.2168 3.67969 8.59288 3.67969 9.0568C3.67969 9.52072 4.05577 9.8968 4.51969 9.8968Z" fill="black"/>
<path d="M10.1213 9.8968C10.5852 9.8968 10.9613 9.52072 10.9613 9.0568C10.9613 8.59288 10.5852 8.2168 10.1213 8.2168C9.65733 8.2168 9.28125 8.59288 9.28125 9.0568C9.28125 9.52072 9.65733 9.8968 10.1213 9.8968Z" fill="black"/>
</svg>
