<svg width="19" height="19" viewBox="0 0 19 19" fill="none" xmlns="http://www.w3.org/2000/svg">
<g clip-path="url(#clip0_1711_5957)">
<path d="M14.3984 6.80039V4.10039M14.3984 4.10039V1.40039M14.3984 4.10039H11.6984M14.3984 4.10039H17.0984M14.8484 17.6004C7.14407 17.6004 0.898438 11.3547 0.898438 3.65039C0.898438 3.30279 0.911154 2.95816 0.936138 2.61695C0.964812 2.22535 0.97915 2.02955 1.08177 1.85132C1.16676 1.7037 1.31739 1.5637 1.47082 1.48972C1.65607 1.40039 1.87213 1.40039 2.30425 1.40039H4.83983C5.20321 1.40039 5.3849 1.40039 5.54066 1.4602C5.67824 1.51303 5.80075 1.59883 5.89742 1.71008C6.00685 1.83602 6.06894 2.00677 6.19313 2.34828L7.24263 5.23444C7.38708 5.63177 7.45935 5.83043 7.44711 6.01892C7.43631 6.18512 7.37952 6.34506 7.28322 6.48094C7.17401 6.63504 6.99274 6.74381 6.63021 6.96133L5.39844 7.70039C6.48015 10.0844 8.41353 12.0203 10.7984 13.1004L11.5375 11.8686C11.755 11.506 11.8638 11.3248 12.0178 11.2156C12.1537 11.1193 12.3137 11.0625 12.4799 11.0517C12.6684 11.0395 12.8671 11.1117 13.2644 11.2562L16.1506 12.3057C16.492 12.4299 16.6628 12.492 16.7887 12.6014C16.9 12.6981 16.9858 12.8206 17.0386 12.9582C17.0984 13.1139 17.0984 13.2956 17.0984 13.659V16.1946C17.0984 16.6267 17.0984 16.8428 17.0091 17.028C16.9351 17.1814 16.7951 17.3321 16.6475 17.4171C16.4692 17.5197 16.2735 17.534 15.8819 17.5627C15.5406 17.5877 15.196 17.6004 14.8484 17.6004Z" stroke="#009FF4" stroke-width="2" stroke-linecap="round" stroke-linejoin="round"/>
</g>
<defs>
<clipPath id="clip0_1711_5957">
<rect width="18.36" height="18" fill="white" transform="translate(0 0.5)"/>
</clipPath>
</defs>
</svg>
