<svg width="18" height="19" viewBox="0 0 18 19" fill="none" xmlns="http://www.w3.org/2000/svg">
<g clip-path="url(#clip0_1687_4480)">
<path d="M18 6.66018L16.7201 6.84004C15.6001 3.40833 12.3788 0.92732 8.57303 0.926758C3.83769 0.92732 0.00028125 4.76448 0 9.4995C0.00028125 14.2348 3.83769 18.0723 8.57303 18.0725C8.82513 18.0725 9.07608 18.0617 9.32446 18.04L9.15173 16.0515H9.15145C8.96161 16.0677 8.76888 16.076 8.57303 16.076C6.75352 16.0754 5.11618 15.3417 3.92249 14.15C2.73083 12.9563 1.99677 11.3187 1.99652 9.4995C1.9968 7.68027 2.73083 6.04262 3.92249 4.84925C5.11618 3.65755 6.75352 2.92384 8.57303 2.92325C10.3922 2.92384 12.0299 3.65755 13.2232 4.84925C13.8645 5.49134 14.367 6.26534 14.7002 7.12386L13.6067 7.2777L16.4277 11.3998L17.0581 9.4995H17.1455C17.1455 9.42241 17.1363 9.34759 17.1341 9.27078L18 6.66018Z" fill="#009FF4"/>
<path d="M14.024 13.1758C13.9166 13.3351 13.8013 13.4901 13.6797 13.6411L15.2317 14.8965C15.3887 14.7024 15.538 14.5017 15.6788 14.2929L14.0246 13.1758H14.024Z" fill="#009FF4"/>
<path d="M11.19 15.5352C10.8708 15.6736 10.5382 15.7873 10.1953 15.8743L10.6853 17.81C11.1338 17.6964 11.568 17.5474 11.9848 17.3664L11.19 15.5354V15.5352Z" fill="#009FF4"/>
<path d="M12.1172 15.0396L13.1953 16.7204C13.5818 16.4728 13.9467 16.1947 14.287 15.8901L12.956 14.4023C12.6942 14.6362 12.4141 14.8497 12.1172 15.0396Z" fill="#009FF4"/>
<path d="M7.58663 9.3716C7.90297 9.01132 8.09453 8.63701 8.09453 8.15906C8.09453 7.3497 7.51382 6.73242 6.55824 6.73242C5.59468 6.73242 5.03566 7.33514 4.98426 8.02631C4.97656 8.07057 4.99941 8.10742 5.04336 8.11484L5.8516 8.24671C5.90356 8.25412 5.93243 8.23215 5.93243 8.18793C5.97637 7.8056 6.18309 7.59976 6.52084 7.59976C6.86656 7.59976 7.06498 7.84276 7.06498 8.17334C7.06498 8.43033 6.96194 8.64355 6.77122 8.86482L5.01397 10.9524C4.98426 10.9892 4.97656 11.0109 4.97656 11.0552V11.739C4.97656 11.7832 5.00623 11.8123 5.05021 11.8123H8.02085C8.06483 11.8123 8.09453 11.7832 8.09453 11.739V11.0109C8.09453 10.9673 8.06483 10.9378 8.02085 10.9378H6.27102V10.923L7.58663 9.3716Z" fill="#009FF4"/>
<path d="M12.4799 11.0842C12.5234 11.0842 12.5528 11.0548 12.5528 11.0105V10.2685C12.5528 10.2243 12.5234 10.1946 12.4799 10.1946H12.1491L12.1048 10.1503V9.06999C12.1048 9.02604 12.0754 8.99634 12.0311 8.99634H11.1786C11.1344 8.99634 11.1047 9.02601 11.1047 9.06999V10.1503L11.0607 10.1946H10.1422V10.1726L11.6412 6.88647C11.656 6.84221 11.6412 6.8125 11.5903 6.8125H10.6559C10.6047 6.8125 10.5754 6.82734 10.5537 6.87163L9.05362 10.1726L9.03906 10.2611V11.0105C9.03906 11.0548 9.06845 11.0842 9.11275 11.0842H11.0607L11.1047 11.1285V11.7386C11.1047 11.7828 11.1344 11.8119 11.1786 11.8119H12.0311C12.0754 11.8119 12.1048 11.7828 12.1048 11.7386V11.1285L12.1491 11.0842H12.4799Z" fill="#009FF4"/>
</g>
<defs>
<clipPath id="clip0_1687_4480">
<rect width="18" height="18" fill="white" transform="translate(0 0.5)"/>
</clipPath>
</defs>
</svg>
