<svg width="14" height="15" viewBox="0 0 14 15" fill="none" xmlns="http://www.w3.org/2000/svg">
<path d="M10.7416 1.71863H10.1816V1.15863C10.1816 1.01011 10.1226 0.867673 10.0175 0.762653C9.91252 0.657633 9.77008 0.598633 9.62156 0.598633C9.47304 0.598633 9.3306 0.657633 9.22558 0.762653C9.12056 0.867673 9.06156 1.01011 9.06156 1.15863V1.71863H4.58156V1.15863C4.58156 1.01011 4.52256 0.867673 4.41754 0.762653C4.31252 0.657633 4.17008 0.598633 4.02156 0.598633C3.87304 0.598633 3.7306 0.657633 3.62558 0.762653C3.52056 0.867673 3.46156 1.01011 3.46156 1.15863V1.71863H2.90156C2.15923 1.71952 1.44755 2.01481 0.922646 2.53972C0.397736 3.06463 0.102452 3.7763 0.101563 4.51863L0.101562 11.2386C0.102452 11.981 0.397736 12.6926 0.922646 13.2176C1.44755 13.7425 2.15923 14.0377 2.90156 14.0386H10.7416C11.4839 14.0377 12.1956 13.7425 12.7205 13.2176C13.2454 12.6926 13.5407 11.981 13.5416 11.2386V4.51863C13.5407 3.7763 13.2454 3.06463 12.7205 2.53972C12.1956 2.01481 11.4839 1.71952 10.7416 1.71863ZM1.22156 4.51863C1.22156 4.07307 1.39856 3.64575 1.71362 3.33069C2.02868 3.01563 2.456 2.83863 2.90156 2.83863H10.7416C11.1871 2.83863 11.6144 3.01563 11.9295 3.33069C12.2446 3.64575 12.4216 4.07307 12.4216 4.51863V5.07863H1.22156V4.51863ZM10.7416 12.9186H2.90156C2.456 12.9186 2.02868 12.7416 1.71362 12.4266C1.39856 12.1115 1.22156 11.6842 1.22156 11.2386V6.19863H12.4216V11.2386C12.4216 11.6842 12.2446 12.1115 11.9295 12.4266C11.6144 12.7416 11.1871 12.9186 10.7416 12.9186Z" fill="black"/>
<path d="M6.82438 9.8382C7.28829 9.8382 7.66438 9.46212 7.66438 8.9982C7.66438 8.53428 7.28829 8.1582 6.82438 8.1582C6.36046 8.1582 5.98438 8.53428 5.98438 8.9982C5.98438 9.46212 6.36046 9.8382 6.82438 9.8382Z" fill="black"/>
<path d="M4.01969 9.8382C4.48361 9.8382 4.85969 9.46212 4.85969 8.9982C4.85969 8.53428 4.48361 8.1582 4.01969 8.1582C3.55577 8.1582 3.17969 8.53428 3.17969 8.9982C3.17969 9.46212 3.55577 9.8382 4.01969 9.8382Z" fill="black"/>
<path d="M9.62125 9.8382C10.0852 9.8382 10.4613 9.46212 10.4613 8.9982C10.4613 8.53428 10.0852 8.1582 9.62125 8.1582C9.15733 8.1582 8.78125 8.53428 8.78125 8.9982C8.78125 9.46212 9.15733 9.8382 9.62125 9.8382Z" fill="black"/>
</svg>
