<svg width="18" height="19" viewBox="0 0 18 19" fill="none" xmlns="http://www.w3.org/2000/svg">
<g clip-path="url(#clip0_1687_4513)">
<path fill-rule="evenodd" clip-rule="evenodd" d="M8.72228 0.520509H8.63228C7.85474 0.520483 7.20639 0.520466 6.69168 0.589662C6.1484 0.662709 5.6579 0.823385 5.26374 1.21754C4.86958 1.6117 4.70891 2.1022 4.63586 2.64548C4.56666 3.16019 4.56668 3.80855 4.56671 4.58608V4.65334C2.81761 4.71057 1.76728 4.91496 1.0373 5.64494C0.0234376 6.65881 0.0234375 8.29062 0.0234375 11.5542C0.0234375 14.8177 0.0234376 16.4496 1.0373 17.4634C2.05116 18.4772 3.68294 18.4772 6.94652 18.4772H10.4081C13.6716 18.4772 15.3034 18.4772 16.3172 17.4634C17.3311 16.4496 17.3311 14.8177 17.3311 11.5542C17.3311 8.29062 17.3311 6.65881 16.3172 5.64494C15.5873 4.91496 14.537 4.71057 12.7879 4.65334V4.58609C12.7879 3.80857 12.7879 3.16019 12.7187 2.64548C12.6457 2.1022 12.485 1.6117 12.0908 1.21754C11.6967 0.823385 11.2062 0.662709 10.6629 0.589662C10.1482 0.520466 9.49983 0.520483 8.72228 0.520509ZM11.4898 4.63272V4.63109C11.4898 3.79685 11.4884 3.23646 11.4322 2.81845C11.3785 2.4191 11.2857 2.2482 11.173 2.13542C11.0602 2.02264 10.8893 1.92986 10.4899 1.87617C10.0719 1.81997 9.51152 1.81859 8.67728 1.81859C7.84305 1.81859 7.28263 1.81997 6.86464 1.87617C6.4653 1.92986 6.2944 2.02264 6.18162 2.13542C6.06884 2.2482 5.97606 2.4191 5.92237 2.81845C5.86617 3.23646 5.86478 3.79685 5.86478 4.63109V4.63272C6.20404 4.63109 6.56408 4.63109 6.94652 4.63109H10.4081C10.7905 4.63109 11.1506 4.63109 11.4898 4.63272ZM13.0042 7.22724C13.0042 7.70518 12.6168 8.09262 12.1388 8.09262C11.6609 8.09262 11.2734 7.70518 11.2734 7.22724C11.2734 6.7493 11.6609 6.36185 12.1388 6.36185C12.6168 6.36185 13.0042 6.7493 13.0042 7.22724ZM5.21575 8.09262C5.69368 8.09262 6.08113 7.70518 6.08113 7.22724C6.08113 6.7493 5.69368 6.36185 5.21575 6.36185C4.73781 6.36185 4.35036 6.7493 4.35036 7.22724C4.35036 7.70518 4.73781 8.09262 5.21575 8.09262Z" fill="#009FF4"/>
</g>
<defs>
<clipPath id="clip0_1687_4513">
<rect width="17.6538" height="18" fill="white" transform="translate(0 0.5)"/>
</clipPath>
</defs>
</svg>
