<svg width="23" height="24" viewBox="0 0 23 24" fill="none" xmlns="http://www.w3.org/2000/svg">
<path d="M15.833 20C15.368 22.279 13.348 24 10.934 24C8.52002 24 6.49902 22.279 6.03502 20H15.833ZM19.434 7C21.364 7 22.934 5.43 22.934 3.5C22.934 1.57 21.364 0 19.434 0C17.504 0 15.934 1.57 15.934 3.5C15.934 5.43 17.504 7 19.434 7ZM19.674 8.988C19.594 8.991 19.515 9 19.434 9C16.401 9 13.934 6.533 13.934 3.5C13.934 2.596 14.157 1.744 14.546 0.991C13.364 0.356 12.02 0 10.61 0C6.70902 0 3.33202 2.709 2.48602 6.516L0.13602 14.113C-0.46098 16.043 0.98202 17.999 3.00202 17.999H18.658C20.738 17.999 22.187 15.934 21.479 13.978L19.673 8.986L19.674 8.988Z" fill="black"/>
</svg>
