<svg width="18" height="19" viewBox="0 0 18 19" fill="none" xmlns="http://www.w3.org/2000/svg">
<g clip-path="url(#clip0_1687_4497)">
<path d="M17.4 9.34984H16.3284L10.1256 2.85184C10.2252 2.57403 10.2462 2.25843 10.0521 1.90655C9.85138 1.54237 9.48389 1.27504 9.0687 1.25194C8.37601 1.21296 7.80001 1.76526 7.80001 2.44986C7.80001 2.59147 7.82912 2.72555 7.8744 2.85187L1.67161 9.34984H0.600012C0.268488 9.34984 0 9.61832 0 9.94985V17.1498C0 17.4813 0.268488 17.7499 0.600012 17.7499H17.4C17.7315 17.7499 18 17.4814 18 17.1498V9.94985C18 9.61832 17.7315 9.34984 17.4 9.34984ZM9 1.84985C9.33089 1.84985 9.60001 2.11893 9.60001 2.44986C9.60001 2.78075 9.33093 3.04987 9 3.04987C8.66911 3.04987 8.39999 2.78078 8.39999 2.44986C8.39999 2.11893 8.66911 1.84985 9 1.84985ZM10.4304 13.6561L11.6121 14.8378C11.7291 14.9548 11.7291 15.145 11.6121 15.262L10.7121 16.162C10.6536 16.2205 10.5768 16.2498 10.5 16.2498C10.4232 16.2498 10.3464 16.2205 10.2879 16.162L9.10621 14.9802C9.04771 14.9217 8.95261 14.9217 8.89411 14.9802L7.7124 16.162C7.5954 16.279 7.40521 16.279 7.28821 16.162L6.38821 15.262C6.27121 15.145 6.27121 14.9548 6.38821 14.8378L7.56991 13.6561C7.62841 13.5976 7.62841 13.5025 7.56991 13.444L6.38821 12.2622C6.27121 12.1452 6.27121 11.9551 6.38821 11.8381L7.28821 10.9381C7.40521 10.8211 7.5954 10.8211 7.7124 10.9381L8.89411 12.1198C8.95261 12.1783 9.04771 12.1783 9.10621 12.1198L10.2879 10.9381C10.4049 10.8211 10.5951 10.8211 10.7121 10.9381L11.6121 11.8381C11.7291 11.9551 11.7291 12.1452 11.6121 12.2622L10.4304 13.444C10.3719 13.5025 10.3719 13.5976 10.4304 13.6561ZM2.50109 9.34984L8.22241 3.35615C8.4324 3.53675 8.70181 3.64985 9 3.64985C9.29819 3.64985 9.5676 3.53675 9.77759 3.35615L15.4989 9.34984H2.50109Z" fill="#009FF4"/>
<path d="M9.68732 13.7623C9.57032 13.6453 9.57032 13.4551 9.68732 13.3381L10.869 12.1564C10.9275 12.0979 10.9275 12.0028 10.869 11.9443L10.6053 11.6806C10.5468 11.6221 10.4517 11.6221 10.3932 11.6806L9.21152 12.8623C9.09452 12.9793 8.90432 12.9793 8.78732 12.8623L7.60562 11.6806C7.54712 11.6221 7.45202 11.6221 7.39352 11.6806L7.12981 11.9443C7.07131 12.0028 7.07131 12.0979 7.12981 12.1564L8.31152 13.3381C8.42852 13.4551 8.42852 13.6453 8.31152 13.7623L7.12981 14.944C7.07131 15.0025 7.07131 15.0976 7.12981 15.1561L7.39352 15.4198C7.45202 15.4783 7.54712 15.4783 7.60562 15.4198L8.78732 14.2381C8.84582 14.1796 8.92264 14.1502 8.99942 14.1502C9.07624 14.1502 9.15302 14.1796 9.21152 14.2381L10.3932 15.4198C10.4517 15.4783 10.5468 15.4783 10.6053 15.4198L10.869 15.1561C10.9275 15.0976 10.9275 15.0025 10.869 14.944L9.68732 13.7623Z" fill="#009FF4"/>
</g>
<defs>
<clipPath id="clip0_1687_4497">
<rect width="18" height="18" fill="white" transform="translate(0 0.5)"/>
</clipPath>
</defs>
</svg>
