<svg width="18" height="19" viewBox="0 0 18 19" fill="none" xmlns="http://www.w3.org/2000/svg">
<g clip-path="url(#clip0_1711_6023)">
<path d="M10.1818 16.6201H1.32406C1.11623 16.6193 0.91695 16.5373 0.768807 16.3915C0.620664 16.2458 0.535405 16.0478 0.53125 15.8401V3.14242C0.53125 2.93215 0.614778 2.7305 0.763458 2.58182C0.912138 2.43314 1.11379 2.34961 1.32406 2.34961H14.009C14.2192 2.34961 14.4209 2.43314 14.5696 2.58182C14.7182 2.7305 14.8018 2.93215 14.8018 3.14242V10.2745" stroke="#009FF4"/>
<path d="M0.53125 5.85156H14.8018" stroke="#009FF4"/>
<path d="M3.75 2.34979V0.757812" stroke="#009FF4" stroke-width="2.8125"/>
<path d="M11.3828 2.34979V0.757812" stroke="#009FF4" stroke-width="2.8125"/>
<path d="M12.9108 17.7093C15.0965 17.7093 16.8685 15.9374 16.8685 13.7516C16.8685 11.5659 15.0965 9.79395 12.9108 9.79395C10.725 9.79395 8.95312 11.5659 8.95312 13.7516C8.95312 15.9374 10.725 17.7093 12.9108 17.7093Z" stroke="#009FF4"/>
<path d="M12.9062 10.9688V13.8725L14.2913 14.936" stroke="#009FF4"/>
</g>
<defs>
<clipPath id="clip0_1711_6023">
<rect width="17.6604" height="18" fill="white" transform="translate(0 0.5)"/>
</clipPath>
</defs>
</svg>
