<svg width="18" height="19" viewBox="0 0 18 19" fill="none" xmlns="http://www.w3.org/2000/svg">
<g clip-path="url(#clip0_1711_6032)">
<path d="M9.08673 0.670898C4.20552 0.670898 0.234375 4.64226 0.234375 9.52379C0.234859 14.4048 4.206 18.3758 9.08673 18.3758C13.9678 18.3758 17.9389 14.4048 17.9389 9.52368C17.9389 4.64226 13.9678 0.670898 9.08673 0.670898ZM9.08673 2.28372C10.7928 2.28372 12.3625 2.87735 13.6013 3.86843L3.43174 14.0379C2.44088 12.7992 1.84736 11.2296 1.8472 9.52373C1.8472 5.53157 5.09483 2.28372 9.08673 2.28372ZM9.08673 16.763C7.38074 16.763 5.81087 16.1694 4.57206 15.1783L14.7417 5.00891C15.7326 6.24771 16.3261 7.81758 16.3261 9.52368C16.326 13.5155 13.0785 16.763 9.08673 16.763Z" fill="#009FF4"/>
</g>
<defs>
<clipPath id="clip0_1711_6032">
<rect width="18" height="18" fill="white" transform="translate(0 0.5)"/>
</clipPath>
</defs>
</svg>
