<svg width="15" height="19" viewBox="0 0 15 19" fill="none" xmlns="http://www.w3.org/2000/svg">
<g clip-path="url(#clip0_1711_6004)">
<path d="M8.00176 14.5882L11.0304 17.7827C11.0676 17.8053 11.1097 17.8187 11.1531 17.8218C11.1965 17.8249 11.2401 17.8175 11.2801 17.8003C11.3201 17.7832 11.3554 17.7567 11.3831 17.7231C11.4108 17.6895 11.43 17.6497 11.4392 17.6072L14.2596 1.16227C14.2619 1.1521 14.2609 1.14147 14.2569 1.13188C14.2528 1.12228 14.2458 1.11421 14.2369 1.1088C14.228 1.10339 14.2176 1.10091 14.2072 1.10171C14.1968 1.10252 14.1869 1.10656 14.179 1.11328L0.880319 11.1916C0.846741 11.2194 0.820293 11.2548 0.803185 11.2948C0.786076 11.3349 0.778803 11.3785 0.781974 11.4219C0.785146 11.4654 0.798668 11.5075 0.821413 11.5446C0.844158 11.5818 0.875465 11.613 0.912719 11.6356L5.0927 12.8205C5.14271 12.8509 5.20115 12.8644 5.25941 12.859C5.31767 12.8537 5.37268 12.8297 5.41632 12.7908L9.38918 9.24221C9.39489 9.23711 9.4021 9.23399 9.40973 9.23332C9.41736 9.23266 9.42501 9.23448 9.43152 9.23852C9.43803 9.24255 9.44306 9.24859 9.44585 9.25572C9.44865 9.26285 9.44906 9.2707 9.44703 9.27808L8.60039 12.3935" stroke="#009FF4" stroke-width="1.32" stroke-miterlimit="10" stroke-linecap="round"/>
</g>
<defs>
<clipPath id="clip0_1711_6004">
<rect width="14.7857" height="18" fill="white" transform="translate(0 0.5)"/>
</clipPath>
</defs>
</svg>
