<svg width="19" height="19" viewBox="0 0 19 19" fill="none" xmlns="http://www.w3.org/2000/svg">
<g clip-path="url(#clip0_1711_6037)">
<path d="M17.9986 3.39024C18.0032 3.33609 18.0054 3.28178 18.0054 3.22762C18.0054 1.73653 16.7923 0.523438 15.3012 0.523438C15.2705 0.523438 15.2408 0.524631 15.1714 0.527676L2.99759 0.52682C2.9624 0.525129 2.92668 0.523438 2.88965 0.523438C1.40091 0.523438 0.189848 1.73414 0.189848 3.22407L0.193589 3.44202H0.1875L0.195281 15.2818L0.192057 15.6874C0.192057 17.1606 1.39042 18.359 2.8634 18.359C2.89659 18.359 3.00284 18.3542 3.00469 18.3542L15.1223 18.3559C15.1817 18.363 15.246 18.3652 15.3124 18.3652C16.0251 18.3652 16.6957 18.0875 17.2004 17.5831C17.7054 17.0788 17.9834 16.4093 17.9834 15.6967L17.9805 15.4576H17.9988L17.9986 3.39022V3.39024ZM2.92145 17.1971L2.87001 17.1931C2.02379 17.1931 1.35472 16.4993 1.34694 15.6148V5.86802H16.8399L16.849 15.5231L16.8314 15.5801C16.8208 15.6167 16.8155 15.6514 16.8155 15.683C16.8155 16.4866 16.1876 17.1509 15.3857 17.1954L15.1704 17.2078V17.1973L2.92145 17.1971ZM16.8397 4.70892H1.34811L1.34065 3.39684L1.35757 3.33866C1.36791 3.30244 1.37313 3.26642 1.37313 3.23424C1.37313 2.39376 2.06419 1.70863 2.92887 1.70576L2.93783 1.70441L15.2394 1.70477L15.2924 1.70881C16.1347 1.70881 16.82 2.39413 16.82 3.23647C16.82 3.26286 16.8239 3.28994 16.8331 3.32666L16.8397 3.34425V4.70892H16.8397Z" fill="#009FF4"/>
<path d="M12.8029 8.62891C12.646 8.62891 12.4981 8.69016 12.3866 8.80168L7.94041 13.2481L5.81664 11.1244C5.70632 11.0129 5.55894 10.9515 5.40189 10.9515C5.24484 10.9515 5.09697 11.0128 4.98563 11.1239C4.87463 11.2337 4.81302 11.3806 4.8125 11.5377C4.81216 11.695 4.87359 11.8433 4.98543 11.9554L7.52365 14.4938C7.63449 14.6044 7.78254 14.6654 7.94041 14.6654C8.09811 14.6654 8.24615 14.6045 8.35699 14.4936L13.2174 9.63319C13.3284 9.52352 13.3901 9.37682 13.3906 9.21961C13.3909 9.06157 13.3293 8.913 13.2178 8.80199C13.1073 8.69032 12.9599 8.62891 12.8029 8.62891H12.8029Z" fill="#009FF4"/>
</g>
<defs>
<clipPath id="clip0_1711_6037">
<rect width="18.3396" height="18" fill="white" transform="translate(0 0.5)"/>
</clipPath>
</defs>
</svg>
