<svg width="18" height="19" viewBox="0 0 18 19" fill="none" xmlns="http://www.w3.org/2000/svg">
<g clip-path="url(#clip0_1711_6042)">
<path d="M8.29564 12.1561C8.87064 12.3836 9.39564 12.6861 9.86814 13.0623C10.3406 13.4373 10.7444 13.8748 11.0806 14.3698C11.7664 15.3687 12.1358 16.5508 12.1406 17.7623V18.3086H11.0469V17.7611C11.0492 17.1146 10.9228 16.4742 10.6749 15.8771C10.427 15.28 10.0627 14.7383 9.60314 14.2836C9.15209 13.8389 8.62168 13.4828 8.03939 13.2336C7.43422 12.9743 6.78277 12.8404 6.12439 12.8398C5.47792 12.8375 4.83746 12.964 4.24039 13.2118C3.64332 13.4597 3.10162 13.8241 2.6469 14.2836C2.20238 14.7348 1.84625 15.2651 1.5969 15.8473C1.3394 16.4398 1.2094 17.0786 1.20315 17.7611V18.3086H0.109396V17.7611C0.106198 16.5487 0.476289 15.3646 1.1694 14.3698C1.85976 13.3738 2.82912 12.6041 3.95565 12.1573C3.69973 11.9815 3.46669 11.7745 3.2619 11.5411C3.05953 11.3113 2.88461 11.0588 2.74065 10.7886C2.59725 10.5186 2.48807 10.2318 2.41565 9.93484C2.34179 9.63231 2.30195 9.32247 2.2969 9.01109C2.2969 8.48234 2.3969 7.98609 2.5969 7.52484C2.98797 6.61099 3.71578 5.88273 4.6294 5.49109C5.10073 5.29045 5.6075 5.1863 6.11976 5.1848C6.63202 5.18329 7.13939 5.28447 7.61189 5.48234C8.52598 5.87371 9.25427 6.60201 9.64564 7.51609C9.96931 8.27723 10.0382 9.12262 9.8419 9.92609C9.76689 10.2223 9.65689 10.5073 9.50939 10.7811C9.36284 11.052 9.18812 11.3068 8.98814 11.5411C8.78814 11.7748 8.55689 11.9786 8.29564 12.1561ZM6.12439 11.7461C6.50064 11.7461 6.85439 11.6748 7.18439 11.5336C7.83868 11.2556 8.35945 10.7344 8.63689 10.0798C8.78564 9.74359 8.85939 9.38734 8.85939 9.01234C8.861 8.6544 8.79068 8.29978 8.65261 7.96953C8.51454 7.63928 8.31154 7.34014 8.05564 7.08984C7.80254 6.84304 7.50752 6.64325 7.18439 6.49984C6.85097 6.35093 6.48955 6.27506 6.12439 6.27734C5.74939 6.27734 5.39565 6.34859 5.06565 6.48984C4.40775 6.77045 3.88375 7.29445 3.60315 7.95234C3.4619 8.28234 3.39065 8.63609 3.39065 9.01234C3.39065 9.38734 3.4619 9.74109 3.60315 10.0711C3.7469 10.4011 3.94065 10.6923 4.18565 10.9423C4.43928 11.1986 4.74151 11.4017 5.07463 11.5398C5.40775 11.6778 5.76507 11.7479 6.12565 11.7461H6.12439ZM17.6094 0.808594V9.55859H15.4219L12.1406 12.8398V9.55859H11.0469V8.46484H13.2344V10.1998L14.9694 8.46484H16.5156V1.90234H5.57814V3.86734C5.39481 3.89051 5.21222 3.91927 5.03064 3.95359C4.84446 3.98894 4.66169 4.04039 4.4844 4.10734V0.808594H17.6094Z" fill="#009FF4"/>
</g>
<defs>
<clipPath id="clip0_1711_6042">
<rect width="17.6667" height="18" fill="white" transform="translate(0 0.5)"/>
</clipPath>
</defs>
</svg>
