<svg width="24" height="25" viewBox="0 0 24 25" fill="none" xmlns="http://www.w3.org/2000/svg">
<g clip-path="url(#clip0_1797_9426)">
<path d="M9.44423 6.59584C9.44423 5.71129 7.57769 4.81938 5.20223 4.81938C2.82659 4.81938 0.96 5.71129 0.96 6.59584C0.96 7.4804 2.82659 8.37231 5.20223 8.37231C7.57769 8.37231 9.44423 7.4804 9.44423 6.59584ZM10.4042 6.59584C10.4042 8.20384 8.04265 9.33231 5.20223 9.33231C2.36163 9.33231 0 8.20384 0 6.59584C0 4.98784 2.36163 3.85938 5.20223 3.85938C8.04265 3.85938 10.4042 4.98787 10.4042 6.59584ZM9.44423 15.3379C9.44423 16.2225 7.57769 17.1144 5.20223 17.1144C2.82659 17.1144 0.96 16.2225 0.96 15.3379H0C0 16.946 2.36163 18.0744 5.20223 18.0744C8.04265 18.0744 10.4042 16.9459 10.4042 15.3379H9.44423ZM9.44423 18.3467C9.44423 19.2312 7.57769 20.1231 5.20223 20.1231C2.82659 20.1231 0.96 19.2312 0.96 18.3467H0C0 19.9547 2.36163 21.0831 5.20223 21.0831C8.04265 21.0831 10.4042 19.9547 10.4042 18.3467H9.44423ZM9.44423 12.3543C9.44423 13.2388 7.57769 14.1307 5.20223 14.1307C2.82659 14.1307 0.96 13.2388 0.96 12.3543H0C0 13.9623 2.36163 15.0907 5.20223 15.0907C8.04265 15.0907 10.4042 13.9622 10.4042 12.3543H9.44423ZM9.44423 9.59622C9.44423 10.4808 7.57769 11.3727 5.20223 11.3727C2.82659 11.3727 0.96 10.4808 0.96 9.59622H0C0 11.2042 2.36163 12.3327 5.20223 12.3327C8.04265 12.3327 10.4042 11.2042 10.4042 9.59622H9.44423Z" fill="#00B7FE"/>
<path d="M0 6.59719V18.5905C0 18.8556 0.214898 19.0705 0.48 19.0705C0.745102 19.0705 0.96 18.8556 0.96 18.5905V6.59719C0.96 6.33209 0.745102 6.11719 0.48 6.11719C0.214898 6.11719 0 6.33209 0 6.59719ZM9.44414 6.59719V18.5905C9.44414 18.8556 9.65904 19.0705 9.92414 19.0705C10.1892 19.0705 10.4041 18.8556 10.4041 18.5905V6.59719C10.4041 6.33209 10.1892 6.11719 9.92414 6.11719C9.65904 6.11719 9.44414 6.33209 9.44414 6.59719ZM20.9908 11.5439C22.1881 11.9574 23.0077 13.0883 23.0077 14.3756C23.0077 16.0297 21.667 17.3705 20.0128 17.3705C18.9068 17.3705 17.9076 16.7662 17.3851 15.8139C17.2576 15.5815 16.9658 15.4964 16.7334 15.6239C16.501 15.7514 16.416 16.0432 16.5435 16.2756C17.2329 17.5323 18.5528 18.3305 20.0128 18.3305C22.1971 18.3305 23.9677 16.5599 23.9677 14.3756C23.9677 12.6757 22.8855 11.1827 21.3042 10.6365C21.0536 10.55 20.7803 10.6829 20.6938 10.9335C20.6072 11.1841 20.7402 11.4574 20.9908 11.5439Z" fill="#00B7FE"/>
<path d="M18.3991 10.5682C18.3991 8.91421 17.0583 7.57328 15.4042 7.57328C13.7502 7.57328 12.4092 8.9143 12.4092 10.5682C12.4092 12.2222 13.7502 13.5632 15.4042 13.5632C17.0583 13.5632 18.3991 12.2223 18.3991 10.5682ZM19.3591 10.5682C19.3591 12.7525 17.5885 14.5232 15.4042 14.5232C13.22 14.5232 11.4492 12.7524 11.4492 10.5682C11.4492 8.3841 13.22 6.61328 15.4042 6.61328C17.5885 6.61328 19.3591 8.38403 19.3591 10.5682Z" fill="#00B7FE"/>
</g>
<defs>
<clipPath id="clip0_1797_9426">
<rect width="24" height="24" fill="white" transform="translate(0 0.5)"/>
</clipPath>
</defs>
</svg>
