<svg width="24" height="24" viewBox="0 0 24 24" fill="none" xmlns="http://www.w3.org/2000/svg">
<path fill-rule="evenodd" clip-rule="evenodd" d="M13.0255 23.9192C16.8792 23.4641 20.2975 21.4055 22.2757 18.8059C22.1179 18.7864 21.96 18.7493 21.8069 18.6965C21.3141 18.5207 20.9601 18.1926 20.7902 17.8098C20.6467 17.5364 20.1444 17.22 19.654 16.9094C18.2618 16.0305 16.9126 15.175 17.2069 13.1926C17.2691 12.7805 17.4365 12.3567 17.6877 11.97L15.8673 9.23754C15.762 9.07933 15.6951 8.91332 15.6616 8.74535C15.64 8.71019 15.6185 8.67699 15.6018 8.64183C15.0803 8.87816 14.5181 9.10863 13.8866 9.27074C10.5855 10.1184 8.33694 8.90551 10.93 6.1223C12.7025 4.21996 8.79144 2.4973 5.32528 4.41918C2.49063 5.98754 0.0435099 9.4309 0.000452 13.218C-0.0593507 18.6985 5.82284 24.7688 13.0255 23.9192ZM23.1154 16.8801C22.369 15.2629 19.3406 14.9094 19.6301 12.9602C19.7066 12.4446 20.0894 11.886 20.6467 11.5832C20.8716 11.4621 21.1227 11.3801 21.3931 11.3606C21.5127 11.3528 21.6347 11.3528 21.7614 11.3664C23.3283 11.5305 24.01 12.8684 24.0005 14.0286C23.9909 15.0989 23.4933 16.1672 23.1154 16.8801ZM21.1945 6.81957C19.9721 6.90355 18.8646 7.16527 17.8814 7.6223L16.4462 1.18871C16.3027 0.678944 16.2931 0.303944 16.9916 0.0246471C17.2619 -0.0222279 17.4939 -0.0026967 17.6829 0.087147C17.8695 0.175038 18.0154 0.329335 18.1183 0.553944L21.1945 6.81957ZM21.6705 10.5403C21.2089 10.5032 20.4434 10.6164 20.0056 10.9563L18.1087 8.11058C19.1708 7.6184 20.2688 7.30199 21.4313 7.28637C21.5174 8.64769 21.4313 9.16137 21.6705 10.5403ZM3.79672 10.8176C4.41389 11.4524 5.54535 11.5598 6.32279 11.0539C7.10022 10.5481 7.23179 9.62621 6.61223 8.99144C5.99507 8.35668 4.866 8.24926 4.08617 8.75512C3.30873 9.25707 3.17956 10.1809 3.79672 10.8176ZM14.7526 19.0012C15.4439 19.7121 16.7141 19.8313 17.5872 19.2668C18.4627 18.7004 18.6086 17.6633 17.9173 16.9504C16.2668 15.2551 13.102 17.302 14.7526 19.0012ZM8.03314 20.6457C8.87756 21.5149 10.4253 21.6594 11.4897 20.97C12.5542 20.2805 12.7312 19.0168 11.8868 18.1477C11.0424 17.2786 9.49472 17.134 8.43023 17.8235C7.36575 18.5129 7.18873 19.7766 8.03314 20.6457ZM3.22023 16.2551C3.94982 17.0071 5.29179 17.1321 6.21275 16.5364C7.13371 15.9407 7.2892 14.8469 6.55721 14.093C5.82762 13.3411 4.48565 13.2161 3.56469 13.8118C2.64373 14.4094 2.49063 15.5032 3.22023 16.2551Z" fill="black"/>
</svg>
