<svg width="22" height="23" viewBox="0 0 22 23" fill="none" xmlns="http://www.w3.org/2000/svg">
<path d="M20.1654 4.16732V6.91732C20.1654 7.40355 19.9722 7.86986 19.6284 8.21368C19.2846 8.5575 18.8183 8.75065 18.332 8.75065H13.7487C13.2625 8.75065 12.7962 8.5575 12.4523 8.21368C12.1085 7.86986 11.9154 7.40355 11.9154 6.91732V4.16732C11.9154 3.68109 12.1085 3.21477 12.4523 2.87096C12.7962 2.52714 13.2625 2.33398 13.7487 2.33398H18.332C18.8183 2.33398 19.2846 2.52714 19.6284 2.87096C19.9722 3.21477 20.1654 3.68109 20.1654 4.16732ZM8.2487 14.2507H3.66536C3.17913 14.2507 2.71282 14.4438 2.369 14.7876C2.02519 15.1314 1.83203 15.5978 1.83203 16.084V18.834C1.83203 19.3202 2.02519 19.7865 2.369 20.1303C2.71282 20.4742 3.17913 20.6673 3.66536 20.6673H8.2487C8.73493 20.6673 9.20124 20.4742 9.54506 20.1303C9.88888 19.7865 10.082 19.3202 10.082 18.834V16.084C10.082 15.5978 9.88888 15.1314 9.54506 14.7876C9.20124 14.4438 8.73493 14.2507 8.2487 14.2507Z" fill="#5D7285"/>
<path d="M10.082 4.16732V10.584C10.082 11.0702 9.88888 11.5365 9.54506 11.8803C9.20124 12.2242 8.73493 12.4173 8.2487 12.4173H3.66536C3.17913 12.4173 2.71282 12.2242 2.369 11.8803C2.02519 11.5365 1.83203 11.0702 1.83203 10.584V4.16732C1.83203 3.68109 2.02519 3.21477 2.369 2.87096C2.71282 2.52714 3.17913 2.33398 3.66536 2.33398H8.2487C8.73493 2.33398 9.20124 2.52714 9.54506 2.87096C9.88888 3.21477 10.082 3.68109 10.082 4.16732ZM18.332 10.584H13.7487C13.2625 10.584 12.7962 10.7771 12.4523 11.121C12.1085 11.4648 11.9154 11.9311 11.9154 12.4173V18.834C11.9154 19.3202 12.1085 19.7865 12.4523 20.1303C12.7962 20.4742 13.2625 20.6673 13.7487 20.6673H18.332C18.8183 20.6673 19.2846 20.4742 19.6284 20.1303C19.9722 19.7865 20.1654 19.3202 20.1654 18.834V12.4173C20.1654 11.9311 19.9722 11.4648 19.6284 11.121C19.2846 10.7771 18.8183 10.584 18.332 10.584Z" fill="#5D7285"/>
</svg>
