<svg width="24" height="24" viewBox="0 0 24 24" fill="none" xmlns="http://www.w3.org/2000/svg">
<path d="M16.9873 2.50012C16.9873 1.11912 18.1063 0.000120965 19.4873 0.000120965C20.8683 0.000120965 21.9873 1.11912 21.9873 2.50012C21.9873 3.88112 20.8683 5.00012 19.4873 5.00012C18.1063 5.00012 16.9873 3.88112 16.9873 2.50012ZM20.0003 6.00012H16.8803C16.6013 6.00012 16.3313 5.88212 16.1433 5.67612L11.2373 0.324121C10.8643 -0.081879 10.2323 -0.110879 9.82432 0.262121C9.41732 0.635121 9.38932 1.26812 9.76232 1.67512L14.6673 7.02712C15.2343 7.64512 16.0403 8.00012 16.8793 8.00012H19.9993C21.1023 8.00012 21.9993 8.89712 21.9993 10.0001V13.0001C21.9993 14.1031 21.1023 15.0001 19.9993 15.0001H17.9993V11.0001C17.9993 10.4471 17.5523 10.0001 16.9993 10.0001C16.4463 10.0001 15.9993 10.4471 15.9993 11.0001V23.0001C15.9993 23.5531 16.4463 24.0001 16.9993 24.0001C17.5523 24.0001 17.9993 23.5531 17.9993 23.0001V17.0001H19.9993V23.0001C19.9993 23.5531 20.4463 24.0001 20.9993 24.0001C21.5523 24.0001 21.9993 23.5531 21.9993 23.0001V16.4441C23.1893 15.7501 23.9993 14.4741 23.9993 13.0001V10.0001C23.9993 7.79412 22.2063 6.00012 20.0003 6.00012ZM5.32532 14.5491C4.59332 13.8191 3.40432 13.8181 2.69632 14.5281L0.314322 16.7721C-0.0876785 17.1511 -0.106678 17.7841 0.272322 18.1851C0.650322 18.5881 1.28332 18.6071 1.68532 18.2271L2.99932 16.9891V23.0001C2.99932 23.5531 3.44632 24.0001 3.99932 24.0001C4.55232 24.0001 4.99932 23.5531 4.99932 23.0001V16.9891L6.31332 18.2271C6.50632 18.4101 6.75232 18.4991 6.99932 18.4991C7.26532 18.4991 7.53032 18.3941 7.72732 18.1851C8.10632 17.7841 8.08732 17.1511 7.68532 16.7721L5.32532 14.5491ZM12.3253 9.54912C11.5943 8.81712 10.4043 8.81812 9.69632 9.52812L7.31432 11.7721C6.91232 12.1511 6.89332 12.7841 7.27232 13.1851C7.65032 13.5871 8.28432 13.6071 8.68532 13.2271L9.99932 11.9891V23.0001C9.99932 23.5531 10.4463 24.0001 10.9993 24.0001C11.5523 24.0001 11.9993 23.5531 11.9993 23.0001V11.9891L13.3133 13.2271C13.5063 13.4101 13.7523 13.4991 13.9993 13.4991C14.2653 13.4991 14.5303 13.3941 14.7273 13.1851C15.1063 12.7841 15.0873 12.1511 14.6853 11.7721L12.3253 9.54912Z" fill="black"/>
</svg>
