<svg width="18" height="19" viewBox="0 0 18 19" fill="none" xmlns="http://www.w3.org/2000/svg">
<g clip-path="url(#clip0_1797_9445)">
<path d="M5.49219 4.97313L9.10377 2.72266L13.9198 6.7953V12.6858L11.1227 14.9527V9.41327L5.49219 4.97313Z" stroke="#009FF4" stroke-width="0.5" stroke-linecap="round" stroke-linejoin="round"/>
<path d="M9.96484 2.5877L12.7031 0.894531L17.6063 4.31312L14.5909 6.62209" stroke="#009FF4" stroke-width="0.5" stroke-linecap="round" stroke-linejoin="round"/>
<path d="M14.7207 11.6592L17.6719 9.25" stroke="#009FF4" stroke-width="0.5" stroke-linecap="round" stroke-linejoin="round"/>
<path d="M14.7207 10.4131L17.6719 8.00391" stroke="#009FF4" stroke-width="0.5" stroke-linecap="round" stroke-linejoin="round"/>
<path d="M14.7207 9.16705L17.6719 6.75781" stroke="#009FF4" stroke-width="0.5" stroke-linecap="round" stroke-linejoin="round"/>
<path d="M14.7207 7.92095L17.6719 5.51172" stroke="#009FF4" stroke-width="0.5" stroke-linecap="round" stroke-linejoin="round"/>
<path d="M14.303 4.89034L15.5797 3.91675L14.7054 3.33203L14.0029 3.86238" stroke="#009FF4" stroke-width="0.5" stroke-linecap="round" stroke-linejoin="round"/>
<path d="M0.328125 13.2266L6.67636 18.1018L10.156 15.3313" stroke="#009FF4" stroke-width="0.5" stroke-linecap="round" stroke-linejoin="round"/>
<path d="M0.328125 11.9766L6.67636 16.8518L10.156 14.0812" stroke="#009FF4" stroke-width="0.5" stroke-linecap="round" stroke-linejoin="round"/>
<path d="M0.376953 10.7227L6.72519 15.5979L10.2049 12.8273" stroke="#009FF4" stroke-width="0.5" stroke-linecap="round" stroke-linejoin="round"/>
<path d="M0.370117 9.47266L6.71835 14.3479L10.198 11.5773" stroke="#009FF4" stroke-width="0.5" stroke-linecap="round" stroke-linejoin="round"/>
<path d="M7.2349 9.37939C7.12897 9.86098 6.44117 10.1076 5.69867 9.93031C4.95612 9.75298 4.44008 9.21884 4.54601 8.7373C4.65195 8.2557 5.33975 8.00909 6.08225 8.18637C6.82475 8.36366 7.34084 8.8978 7.2349 9.37939Z" stroke="#009FF4" stroke-width="0.5" stroke-linecap="round" stroke-linejoin="round"/>
<path d="M4.80551 5.66797L0.448242 8.29044L6.6972 13.033L10.2781 10.2136" stroke="#009FF4" stroke-width="0.5" stroke-linecap="round" stroke-linejoin="round"/>
</g>
<defs>
<clipPath id="clip0_1797_9445">
<rect width="18" height="18" fill="white" transform="translate(0 0.5)"/>
</clipPath>
</defs>
</svg>
