<svg width="36" height="36" viewBox="0 0 36 36" fill="none" xmlns="http://www.w3.org/2000/svg">
<path d="M18 0C8.0745 0 0 8.0745 0 18C0 27.9255 8.0745 36 18 36C27.9255 36 36 27.9255 36 18C36 8.0745 27.9255 0 18 0ZM23.5605 21.4395C24.147 22.026 24.147 22.974 23.5605 23.5605C23.268 23.853 22.884 24 22.5 24C22.116 24 21.732 23.853 21.4395 23.5605L18 20.121L14.5605 23.5605C14.268 23.853 13.884 24 13.5 24C13.116 24 12.732 23.853 12.4395 23.5605C11.853 22.974 11.853 22.026 12.4395 21.4395L15.879 18L12.4395 14.5605C11.853 13.974 11.853 13.026 12.4395 12.4395C13.026 11.853 13.974 11.853 14.5605 12.4395L18 15.879L21.4395 12.4395C22.026 11.853 22.974 11.853 23.5605 12.4395C24.147 13.026 24.147 13.974 23.5605 14.5605L20.121 18L23.5605 21.4395Z" fill="#EA4335"/>
</svg>
