<svg width="27" height="32" viewBox="0 0 27 32" fill="none" xmlns="http://www.w3.org/2000/svg">
<path d="M22.6785 8.62179H22.9876L22.7653 8.40691L19.0791 4.84372L18.8672 4.63892V4.93359V7.94004C18.8672 8.31726 19.2382 8.62179 19.631 8.62179H22.6785Z" stroke="#4732BA" stroke-width="0.25"/>
<path d="M16.7721 3.37891V3.25426L16.6475 3.25391L3.95359 3.21875V3.21875H3.95324C3.56664 3.21875 3.21875 3.54549 3.21875 3.9298V28.0634C3.21875 28.258 3.31689 28.4386 3.45455 28.5677C3.59263 28.6973 3.78187 28.7862 3.98255 28.7862H23.8497C24.2759 28.7862 24.508 28.3999 24.508 28.0634V10.8394V10.7144H24.383H19.6301C18.0493 10.7144 16.7721 9.46623 16.7721 7.93254V3.37891ZM17.5262 15.5942C18.1018 15.5942 18.5733 16.0656 18.5733 16.6413C18.5733 17.2169 18.1018 17.6884 17.5262 17.6884H7.2703C6.69468 17.6884 6.22319 17.2169 6.22319 16.6413C6.22319 16.0656 6.69468 15.5942 7.2703 15.5942H17.5262ZM7.21169 10.9057H14.0099C14.5855 10.9057 15.057 11.3772 15.057 11.9529C15.057 12.5285 14.5855 13 14.0099 13H7.21169C6.63607 13 6.16459 12.5285 6.16459 11.9529C6.16459 11.3772 6.63607 10.9057 7.21169 10.9057ZM20.4565 22.3768H7.2703C6.69468 22.3768 6.22319 21.9053 6.22319 21.3297C6.22319 20.7541 6.69468 20.2826 7.2703 20.2826H20.4565C21.0321 20.2826 21.5036 20.7541 21.5036 21.3297C21.5036 21.9053 21.0321 22.3768 20.4565 22.3768Z" stroke="#4732BA" stroke-width="0.25"/>
<path d="M26.2403 8.51128L26.2403 8.51129C26.6353 8.89373 26.8527 9.42494 26.8527 10.0018V28.058C26.8527 29.7478 25.51 31.125 23.8502 31.125H3.983C2.29823 31.125 0.875 29.7229 0.875 28.0639V3.93026C0.875 2.24275 2.25642 0.875 3.9537 0.875H3.95403L17.386 0.910163C17.3861 0.910163 17.3861 0.910163 17.3862 0.910163L17.3863 0.910164L17.386 1.03516C17.9955 1.03516 18.5874 1.27544 19.0211 1.6974L26.2403 8.51128ZM26.2403 8.51128L19.1083 1.60781L26.2403 8.51128ZM19.1168 7.93299V5.22709L22.3689 8.3706H19.6306C19.3444 8.3706 19.1168 8.14847 19.1168 7.93299ZM23.8502 28.5308H3.983C3.85476 28.5308 3.72458 28.4741 3.62576 28.3819C3.52669 28.2896 3.46921 28.1715 3.46921 28.058V3.93026C3.46921 3.6934 3.69555 3.4693 3.95354 3.46921C3.95359 3.46921 3.95365 3.46921 3.9537 3.46921L16.5226 3.50403V7.93299C16.5226 9.60485 17.9177 10.9648 19.6306 10.9648H24.2585V28.058C24.2585 28.3076 24.0921 28.5308 23.8502 28.5308Z" fill="#4732BA" stroke="#4732BA" stroke-width="0.25"/>
<path d="M5.97364 16.6418C5.97364 17.3555 6.55706 17.9389 7.27075 17.9389H17.5267C18.2404 17.9389 18.8238 17.3555 18.8238 16.6418C18.8238 15.9281 18.2404 15.3447 17.5267 15.3447H7.27075C6.55706 15.3447 5.97364 15.9281 5.97364 16.6418ZM7.21214 13.2505H14.0103C14.724 13.2505 15.3075 12.667 15.3075 11.9534C15.3075 11.2397 14.724 10.6562 14.0103 10.6562H7.21214C6.49845 10.6562 5.91504 11.2397 5.91504 11.9534C5.91504 12.667 6.49845 13.2505 7.21214 13.2505ZM20.4569 20.0331H7.27075C6.55706 20.0331 5.97364 20.6165 5.97364 21.3302C5.97364 22.0439 6.55706 22.6273 7.27075 22.6273H20.4569C21.1706 22.6273 21.754 22.0439 21.754 21.3302C21.754 20.6165 21.1706 20.0331 20.4569 20.0331Z" fill="#4732BA" stroke="#4732BA" stroke-width="0.25"/>
</svg>
