<svg width="28" height="32" viewBox="0 0 28 32" fill="none" xmlns="http://www.w3.org/2000/svg">
<path d="M13.8623 20.4946L13.8602 20.4947C13.4642 20.4946 13.069 20.4568 12.68 20.3818C12.4719 20.3416 12.2661 20.2902 12.0636 20.2277C10.8011 19.8426 9.69568 19.0622 8.91024 18.0014C8.12555 16.9416 7.70173 15.658 7.70108 14.3394C7.68818 14.1325 7.68818 13.925 7.70108 13.7181L7.70108 13.7166C7.70106 13.6102 7.70103 13.4353 7.76542 13.2659C7.98559 12.0088 8.59082 10.8511 9.49758 9.95282C9.66245 9.78582 9.84188 9.63386 10.0337 9.49874C11.1167 8.6262 12.47 8.15851 13.8607 8.17627C15.2659 8.16894 16.6297 8.65106 17.718 9.53977C17.8844 9.66058 18.04 9.79557 18.1832 9.94322C18.1835 9.94351 18.1837 9.9438 18.184 9.9441L18.0943 10.0311C18.9777 10.908 19.5709 12.0347 19.7939 13.2594L13.8623 20.4946ZM13.8623 20.4946C14.2458 20.4883 14.6277 20.4436 15.0023 20.3612C15.2068 20.3203 15.4119 20.269 15.6075 20.2073C16.8571 19.8143 17.949 19.0331 18.7243 17.9771C19.4988 16.9223 19.9172 15.6482 19.9189 14.3396C19.9313 14.146 19.9313 13.9518 19.9189 13.7582L13.8623 20.4946ZM13.8597 10.4377L13.8608 10.4377C14.8057 10.4336 15.7199 10.773 16.4333 11.3926L16.433 11.393L16.4417 11.3993C16.5223 11.458 16.5974 11.5238 16.6663 11.5958L16.6663 11.5958L16.6685 11.5981C17.2243 12.1506 17.6034 12.8556 17.7581 13.6237V13.6238V13.6244V13.625V13.6256V13.6262V13.6268V13.6274V13.628V13.6285V13.6291V13.6297V13.6303V13.6309V13.6315V13.6321V13.6327V13.6333V13.6339V13.6345V13.6351V13.6357V13.6363V13.6369V13.6375V13.6381V13.6387V13.6393V13.6399V13.6405V13.6411V13.6417V13.6423V13.6429V13.6435V13.6442V13.6448V13.6454V13.646V13.6466V13.6472V13.6478V13.6484V13.649V13.6496V13.6502V13.6508V13.6514V13.652V13.6526V13.6532V13.6539V13.6545V13.6551V13.6557V13.6563V13.6569V13.6575V13.6581V13.6587V13.6594V13.66V13.6606V13.6612V13.6618V13.6624V13.663V13.6636V13.6643V13.6649V13.6655V13.6661V13.6667V13.6673V13.668V13.6686V13.6692V13.6698V13.6704V13.671V13.6717V13.6723V13.6729V13.6735V13.6741V13.6748V13.6754V13.676V13.6766V13.6772V13.6779V13.6785V13.6791V13.6797V13.6804V13.681V13.6816V13.6822V13.6829V13.6835V13.6841V13.6847V13.6854V13.686V13.6866V13.6873V13.6879V13.6885V13.6891V13.6898V13.6904V13.691V13.6917V13.6923V13.6929V13.6936V13.6942V13.6948V13.6955V13.6961V13.6967V13.6974V13.698V13.6986V13.6993V13.6999V13.7005V13.7012V13.7018V13.7025V13.7031V13.7037V13.7044V13.705V13.7057V13.7063V13.7069V13.7076V13.7082V13.7089V13.7095V13.7102V13.7108V13.7114V13.7121V13.7127V13.7134V13.714V13.7147V13.7153V13.716V13.7166V13.7173V13.7179V13.7186V13.7192V13.7199V13.7205V13.7212V13.7218V13.7225V13.7231V13.7238V13.7244V13.7251V13.7257V13.7264V13.727V13.7277V13.7284V13.729V13.7297V13.7303V13.731V13.7316V13.7323V13.733V13.7336V13.7343V13.735V13.7356V13.7363V13.7369V13.7376V13.7383V13.7389V13.7396V13.7403V13.7409V13.7416V13.7423V13.7429V13.7436V13.7443V13.7449V13.7456V13.7463V13.7469V13.7476V13.7483V13.749V13.7496V13.7503V13.751V13.7517V13.7523V13.753V13.7537V13.7544V13.755V13.7557V13.7564V13.7571V13.7578V13.7584V13.7591V13.7598V13.7605V13.7612V13.7618V13.7625V13.7632V13.7639V13.7646V13.7653V13.7659V13.7666V13.7673V13.768V13.7687V13.7694V13.7701V13.7708V13.7715V13.7721V13.7728V13.7735V13.7742V13.7749V13.7756V13.7763V13.777V13.7777V13.7784V13.7791V13.7798V13.7805V13.7812V13.7819V13.7826V13.7833V13.784V13.7847V13.7854V13.7861V13.7868V13.7875V13.7882V13.7889V13.7896V13.7903V13.791V13.7917V13.7924V13.7931V13.7939V13.7946V13.7953V13.796V13.7967V13.7974V13.7981V13.7988V13.7995V13.8003V13.801V13.8017V13.8024V13.8031V13.8038V13.8046V13.8053V13.806V13.8067V13.8074V13.8082V13.8089V13.8096V13.8103V13.8111V13.8118V13.8125V13.8132V13.814V13.8147V13.8154V13.8162V13.8169V13.8176V13.8183V13.8191V13.8198V13.8205V13.8213V13.822V13.8227V13.8235V13.8242V13.825V13.8257V13.8264V13.8272V13.8279V13.8286V13.8294V13.8301V13.8309V13.8316V13.8324V13.8331V13.8339V13.8346V13.8353V13.8361V13.8368V13.8376V13.8383V13.8391V13.8398V13.8406V13.8413V13.8421V13.8428V13.8436V13.8444V13.8451V13.8459V13.8466V13.8474V13.8481V13.8489V13.8497V13.8504V13.8512V13.8519V13.8527V13.8535V13.8542V13.855V13.8558V13.8565V13.8573V13.8581V13.8588V13.8596V13.8604V13.8611V13.8619V13.8627V13.8635V13.8642V13.865V13.8658V13.8666V13.8673V13.8681V13.8689V13.8697V13.8705V13.8712V13.872V13.8728V13.8736V13.8744V13.8751V13.8759V13.8767V13.8775V13.8783V13.8791V13.8799V13.8807V13.8814V13.8822V13.883V13.8838V13.8846V13.8854V13.8862V13.887V13.8878V13.8886V13.8894V13.8902V13.891V13.8918V13.8926V13.8934V13.8942V13.895V13.8958V13.8966V13.8974V13.8982V13.899V13.8998V13.9007V13.9015V13.9023V13.9031V13.9039V13.9047V13.9055V13.9063V13.9072V13.908V13.9088V13.9096V13.9104V13.9112V13.9121V13.9129V13.9137V13.9145V13.9154V13.9162V13.917V13.9178V13.9187V13.9195V13.9203V13.9212V13.922V13.9228V13.9236V13.9245V13.9253V13.9261V13.927V13.9278V13.9287V13.9295V13.9303V13.9312V13.932V13.9329V13.9337V13.9345V13.9354V13.9362V13.9371V13.9379V13.9388V13.9396V13.9405V13.9413V13.9422V13.943V13.9439V13.9447V13.9456V13.9464V13.9473V13.9482V13.949V13.9499V13.9507V13.9516V13.9525V13.9533V13.9542V13.955V13.9559V13.9568V13.9576V13.9585V13.9594V13.9603V13.9611V13.962V13.9629V13.9637V13.9646V13.9655V13.9664V13.9672V13.9681V13.969V13.9699V13.9708V13.9716V13.9725V13.9734H17.7578L17.7583 13.9816C17.7659 14.0967 17.7659 14.2122 17.7583 14.3273L17.758 14.3273L17.7581 14.3357C17.7596 15.1646 17.4968 15.9724 17.0079 16.6418C16.5197 17.3103 15.8314 17.8059 15.0427 18.057L14.617 18.1659C14.1163 18.265 13.6009 18.2648 13.1002 18.1653L13.0999 18.1652C12.972 18.1401 12.8457 18.1077 12.7215 18.0682L12.7202 18.0677C11.9228 17.8239 11.2247 17.3307 10.7283 16.6607C10.232 15.9907 9.96353 15.1792 9.96248 14.3454H9.9627L9.96224 14.3378C9.9539 14.2023 9.9539 14.0664 9.96224 13.9308L9.96248 13.9308V13.9231V13.9225V13.9219V13.9214V13.9208V13.9202V13.9196V13.919V13.9184V13.9178V13.9172V13.9166V13.9161V13.9155V13.9149V13.9143V13.9137V13.9131V13.9125V13.9119V13.9113V13.9107V13.9102V13.9096V13.909V13.9084V13.9078V13.9072V13.9066V13.906V13.9054V13.9049V13.9043V13.9037V13.9031V13.9025V13.9019V13.9013V13.9007V13.9001V13.8996V13.899V13.8984V13.8978V13.8972V13.8966V13.896V13.8954V13.8948V13.8943V13.8937V13.8931V13.8925V13.8919V13.8913V13.8907V13.8901V13.8895V13.889V13.8884V13.8878V13.8872V13.8866V13.886V13.8854V13.8848V13.8843V13.8837V13.8831V13.8825V13.8819V13.8813V13.8807V13.8801V13.8795V13.879V13.8784V13.8778V13.8772V13.8766V13.876V13.8754V13.8748V13.8743V13.8737V13.8731V13.8725V13.8719V13.8713V13.8707V13.8701V13.8696V13.869V13.8684V13.8678V13.8672V13.8666V13.866V13.8654V13.8649V13.8643V13.8637V13.8631V13.8625V13.8619V13.8613V13.8607V13.8602V13.8596V13.859V13.8584V13.8578V13.8572V13.8566V13.8561V13.8555V13.8549V13.8543V13.8537V13.8531V13.8525V13.852V13.8514V13.8508V13.8502V13.8496V13.849V13.8484V13.8479V13.8473V13.8467V13.8461V13.8455V13.8449V13.8443V13.8438V13.8432V13.8426V13.842V13.8414V13.8408V13.8402V13.8397V13.8391V13.8385V13.8379V13.8373V13.8367V13.8362V13.8356V13.835V13.8344V13.8338V13.8332V13.8326V13.8321V13.8315V13.8309V13.8303V13.8297V13.8291V13.8286V13.828V13.8274V13.8268V13.8262V13.8256V13.8251V13.8245V13.8239V13.8233V13.8227V13.8221V13.8216V13.821V13.8204V13.8198V13.8192V13.8187V13.8181V13.8175V13.8169V13.8163V13.8157V13.8152V13.8146V13.814V13.8134V13.8128V13.8123V13.8117V13.8111V13.8105V13.8099V13.8094V13.8088V13.8082V13.8076V13.807V13.8064V13.8059V13.8053V13.8047V13.8041V13.8035V13.803V13.8024V13.8018V13.8012V13.8006V13.8001V13.7995V13.7989V13.7983V13.7978V13.7972V13.7966V13.796V13.7954V13.7949V13.7943V13.7937V13.7931V13.7925V13.792V13.7914V13.7908V13.7902V13.7897V13.7891V13.7885V13.7879V13.7873V13.7868V13.7862V13.7856V13.785V13.7845V13.7839V13.7833V13.7827V13.7822V13.7816V13.781V13.7804V13.7799V13.7793V13.7787V13.7781V13.7776V13.777V13.7764V13.7758V13.7752V13.7747V13.7741V13.7735V13.773V13.7724V13.7718V13.7712V13.7707V13.7701V13.7695V13.7689V13.7684V13.7678V13.7672V13.7666V13.7661V13.7655V13.7649V13.7643V13.7638V13.7632V13.7626V13.7621V13.7615V13.7609V13.7603V13.7598V13.7592V13.7586V13.7581V13.7575V13.7569V13.7563V13.7558V13.7552V13.7546V13.7541V13.7535V13.7529V13.7524V13.7518V13.7512V13.7506V13.7501V13.7495V13.7489V13.7484V13.7478V13.7472V13.7467V13.7461V13.7455V13.745V13.7444V13.7438V13.7432V13.7427V13.7421V13.7415V13.741V13.7404V13.7398V13.7393V13.7387V13.7381V13.7376V13.737V13.7364V13.7359V13.7353V13.7347V13.7342V13.7336V13.733V13.7325V13.7319V13.7314V13.7308V13.7302V13.7297V13.7291V13.7285V13.728V13.7274V13.7268V13.7263V13.7257V13.7252V13.7246V13.724V13.7235V13.7229V13.7223V13.7218V13.7212V13.7207V13.7201V13.7195V13.719V13.7184V13.7178V13.7173V13.7167V13.7162V13.7156V13.715V13.7145V13.7139V13.7134V13.7128V13.7122V13.7117V13.7111V13.7106V13.71V13.7094V13.7089V13.7083V13.7078V13.7072V13.7067V13.7061V13.7055V13.705V13.7044V13.7039V13.7033V13.7028V13.7022V13.7016V13.7011V13.7005V13.7V13.6994V13.6989V13.6983V13.6978V13.6972V13.6966V13.6961V13.6955V13.695V13.6944V13.6939V13.6933V13.6928V13.6922V13.6917V13.6911V13.6905V13.69V13.6894V13.6889V13.6883V13.6878V13.6872V13.6867V13.6861V13.6856V13.685V13.6845V13.6839V13.6834V13.6828V13.6823V13.6817V13.6812V13.6806V13.6801V13.6795V13.679V13.6784V13.6779V13.6773V13.6768V13.6762V13.6757V13.6751V13.6746V13.674V13.6735V13.673V13.6724V13.6719V13.6713V13.6708V13.6702V13.6697V13.6691V13.6686V13.668V13.6675V13.667V13.6664V13.6659V13.6653V13.6648V13.6642V13.6637V13.6631V13.6626V13.6621V13.6615V13.661V13.6604V13.6599V13.6593V13.6588V13.6583V13.6577V13.6572V13.6566V13.6561V13.6556V13.655V13.6545V13.6539V13.6534V13.6529V13.6523V13.6518V13.6512V13.6507V13.6502V13.6496V13.6491V13.6486V13.648V13.6475V13.6469V13.6464V13.6459V13.6453V13.6448V13.6443V13.6437V13.6437C10.122 12.8409 10.5303 12.1085 11.1295 11.5507L11.1295 11.5507L11.1323 11.548C11.2204 11.4607 11.3158 11.3812 11.4175 11.3103L11.4178 11.3106L11.4254 11.3043C12.111 10.7405 12.9721 10.4339 13.8597 10.4377Z" fill="#45C646" stroke="#45C646" stroke-width="0.25"/>
<path d="M12.8535 19.2383H12.7285L14.8649 29.1889H14.9899V29.1883V19.3633V19.2383H14.8649H12.8535Z" fill="#45C646" stroke="#45C646" stroke-width="0.25"/>
<path d="M17.8618 28.8633H9.81624C9.19178 28.8633 8.68555 29.3695 8.68555 29.994C8.68555 30.6184 9.19178 31.1247 9.81624 31.1247H17.8618C18.4863 31.1247 18.9925 30.6184 18.9925 29.994C18.9925 29.3695 18.4863 28.8633 17.8618 28.8633Z" fill="#45C646" stroke="#45C646" stroke-width="0.25"/>
<path d="M10.9539 0.875037C10.6106 0.873124 10.2709 0.945259 9.95799 1.08653C9.64499 1.22784 9.36615 1.43501 9.1405 1.6939C8.91485 1.95279 8.74771 2.25731 8.65046 2.58668C8.55322 2.91603 8.52817 3.26248 8.577 3.6024C8.57701 3.60242 8.57701 3.60244 8.57701 3.60246L9.82406 12.3519L9.85533 12.5713L10.0269 12.431L11.4037 11.3054C11.4039 11.3053 11.4041 11.3052 11.4042 11.3051C12.0955 10.7518 12.9545 10.4504 13.8399 10.4504C14.7252 10.4504 15.5842 10.7518 16.2755 11.3051C16.2756 11.3052 16.2758 11.3053 16.276 11.3054L17.6528 12.431L17.8242 12.5712L17.8556 12.352L19.1025 3.65401C19.1026 3.65377 19.1026 3.65353 19.1026 3.65329C19.1544 3.31642 19.1329 2.97234 19.0395 2.64455C18.9462 2.31699 18.7833 2.01343 18.562 1.75458C18.3406 1.48399 18.0628 1.26506 17.748 1.11313C17.4327 0.960993 17.088 0.879729 16.7379 0.875048V0.875037H16.7363H10.9539ZM10.9539 0.875037C10.954 0.875038 10.9541 0.875038 10.9542 0.875039L10.9535 1.00004M10.9539 0.875037H10.9535V1.00004M10.9535 1.00004H16.7363L8.70074 3.58468C8.65445 3.26254 8.67819 2.93421 8.77035 2.62208C8.8625 2.30995 9.0209 2.02137 9.23473 1.77603C9.44857 1.5307 9.71281 1.33437 10.0094 1.20045C10.306 1.06653 10.6281 0.998174 10.9535 1.00004ZM16.9374 3.10195L16.8426 3.18337C16.8518 3.19409 16.8585 3.2067 16.8623 3.22031C16.8661 3.23392 16.8668 3.2482 16.8644 3.26212L16.8644 3.26212L16.8639 3.26532L16.102 8.60855C15.3811 8.32864 14.6141 8.18478 13.8399 8.18478C13.0656 8.18478 12.2985 8.32865 11.5777 8.60857L10.8158 3.27535L10.8158 3.27535L10.8155 3.27329C10.8127 3.25598 10.8139 3.23826 10.8189 3.22147L10.6992 3.18555L10.8189 3.22147C10.8239 3.20468 10.8327 3.18924 10.8445 3.17631L10.8446 3.17635L10.847 3.17361C10.86 3.15856 10.8761 3.14654 10.8942 3.13838C10.9124 3.13022 10.9321 3.12612 10.9519 3.12637L10.9533 3.12638L16.736 3.13645L16.7378 3.13642C16.7577 3.13617 16.7774 3.14027 16.7956 3.14843C16.8137 3.15659 16.8298 3.16862 16.8428 3.18367L16.9374 3.10195ZM16.9374 3.10195C16.9125 3.07312 16.8816 3.05008 16.8468 3.03444C16.8121 3.01881 16.7744 3.01096 16.7363 3.01143M16.9374 3.10195C16.9586 3.12658 16.974 3.15557 16.9827 3.18686C16.9914 3.21814 16.9931 3.25096 16.9877 3.28297L16.2215 8.65636L16.7363 3.01143M16.7363 3.01143L10.9535 3.00138C10.9154 3.0009 10.8777 3.00875 10.8429 3.02439C10.8082 3.04002 10.7773 3.06306 10.7524 3.09189L16.7363 3.01143Z" fill="#45C646" stroke="#45C646" stroke-width="0.25"/>
<path d="M20.8385 25.5321H20.8388H20.9092V25.5322L20.9134 25.532C21.2597 25.5202 21.5993 25.4334 21.9089 25.2778C22.2182 25.1222 22.4901 24.9015 22.706 24.6308C22.7062 24.6306 22.7064 24.6304 22.7065 24.6302L26.3864 20.136L26.3864 20.136L26.3874 20.1348C26.6022 19.8654 26.7568 19.5531 26.8406 19.2189C26.9244 18.8847 26.9355 18.5364 26.8732 18.1975C26.8108 17.8586 26.6765 17.5371 26.4792 17.2546C26.2819 16.9721 26.0263 16.7352 25.7297 16.56L25.7292 16.5597L17.6837 11.853L17.4637 11.7244L17.4966 11.9771L17.7575 13.9844C17.7648 14.0983 17.7647 14.2124 17.7573 14.3262L17.7571 14.3262L17.757 14.3338C17.7531 15.1618 17.4856 15.9671 16.9933 16.6329C16.5009 17.2987 15.8094 17.7904 15.0188 18.0367L15.0184 18.0368L13.4897 18.5196L13.3004 18.5793L13.4361 18.7242L19.087 24.7572C19.0872 24.7574 19.0874 24.7576 19.0876 24.7578C19.3097 25.0011 19.58 25.1955 19.8813 25.3288C20.1828 25.4622 20.5088 25.5314 20.8385 25.5321ZM19.8481 15.7364L24.5263 18.4848C24.5263 18.4848 24.5264 18.4849 24.5264 18.4849C24.5426 18.4946 24.5565 18.5077 24.5669 18.5234C24.5775 18.5392 24.5843 18.5571 24.5869 18.5758L24.5867 18.5759L24.5884 18.5841C24.5927 18.6048 24.5926 18.6261 24.5879 18.6467C24.5833 18.667 24.5744 18.6861 24.5619 18.7026L20.9523 23.2171L20.9523 23.2171L20.9514 23.2183C20.9389 23.2343 20.923 23.2473 20.9049 23.2564C20.8867 23.2654 20.8667 23.2704 20.8464 23.2707L20.8449 23.2708C20.8257 23.2714 20.8066 23.2676 20.7891 23.2597C20.7716 23.2518 20.7561 23.24 20.7438 23.2253L20.744 23.2251L20.7388 23.2196L17.2315 19.4876C17.8888 19.0557 18.4578 18.5015 18.9072 17.8548C19.3524 17.2141 19.6715 16.4952 19.8481 15.7364Z" fill="#45C646" stroke="#45C646" stroke-width="0.25"/>
<path d="M6.87979 25.5322L6.88116 25.5322C7.21866 25.5285 7.55147 25.4527 7.85729 25.3099C8.1622 25.1675 8.43324 24.9617 8.65235 24.7063L14.3225 18.6742L14.4599 18.528L14.2681 18.4691L12.7294 17.9964L12.7293 17.9964C11.9319 17.7525 11.2338 17.2593 10.7374 16.5893C10.2411 15.9193 9.97265 15.1078 9.9716 14.274L9.97183 14.274L9.97136 14.2664C9.9641 14.1489 9.96402 14.0311 9.97112 13.9136L10.2221 11.9061L10.2538 11.6522L10.034 11.7833L2.03871 16.5503L2.03811 16.5506C1.74473 16.7278 1.49255 16.9656 1.29844 17.248C1.10433 17.5305 0.972746 17.8511 0.912497 18.1885C0.852249 18.5259 0.864719 18.8723 0.949073 19.2045C1.03343 19.5367 1.18772 19.847 1.40165 20.1148L1.40178 20.115L5.02207 24.6303C5.02212 24.6303 5.02217 24.6304 5.02223 24.6305C5.23817 24.9013 5.51025 25.1222 5.81972 25.2778C6.12927 25.4335 6.46888 25.5203 6.81518 25.5321L6.81517 25.5322H6.81945L6.87979 25.5322ZM10.4764 19.5081L6.95979 23.2397L6.95968 23.2396L6.95577 23.2442C6.94501 23.2567 6.93148 23.2666 6.91623 23.273C6.90098 23.2795 6.88445 23.2822 6.86794 23.2811L6.86703 23.2811C6.84763 23.2799 6.82869 23.2747 6.81149 23.2656C6.79429 23.2566 6.77922 23.2439 6.76729 23.2286L6.7673 23.2286L6.76631 23.2273L3.15586 18.7017L3.15532 18.701C3.14344 18.6864 3.135 18.6692 3.13063 18.6508C3.12625 18.6324 3.12605 18.6133 3.13004 18.5948L3.13022 18.5949L3.13128 18.5882C3.13438 18.5689 3.14161 18.5504 3.15248 18.5341C3.16319 18.5181 3.17719 18.5045 3.19354 18.4942L7.83577 15.7265C8.01259 16.4962 8.3359 17.2252 8.78856 17.8735C9.24135 18.5221 9.81454 19.0769 10.4764 19.5081Z" fill="#45C646" stroke="#45C646" stroke-width="0.25"/>
</svg>
