<svg width="24" height="24" viewBox="0 0 24 24" fill="none" xmlns="http://www.w3.org/2000/svg">
<path d="M8.39055 4.034L9.50955 4.945L9.06755 6.274C8.92955 6.712 9.08455 7.191 9.45255 7.467C9.64155 7.608 9.86655 7.682 10.1015 7.682C10.3165 7.682 10.5245 7.619 10.7045 7.499L12.0095 6.625L13.3395 7.492C13.7245 7.742 14.2275 7.721 14.5915 7.442C14.9555 7.161 15.1035 6.679 14.9555 6.235L14.5005 4.939L15.6145 4.031C15.9615 3.739 16.0905 3.257 15.9345 2.831C15.7785 2.405 15.3705 2.119 14.9165 2.119H13.5185L13.0155 0.707C12.8595 0.284 12.4515 0 12.0005 0C11.5495 0 11.1415 0.284 10.9825 0.712L10.4815 2.118H9.08355C8.63055 2.118 8.22255 2.403 8.06655 2.826C7.90955 3.25 8.03655 3.734 8.39055 4.034ZM9.08355 3.118H10.8335C11.0445 3.118 11.2335 2.985 11.3045 2.786L11.9245 1.048H12.0745L12.6945 2.786C12.7655 2.985 12.9545 3.118 13.1655 3.118H14.9155L14.9755 3.26L13.5955 4.385C13.4325 4.518 13.3695 4.739 13.4395 4.938L14.0105 6.566L13.8835 6.654L12.2775 5.608C12.1095 5.498 11.8935 5.501 11.7265 5.611L10.1475 6.668C10.1295 6.68 10.1125 6.682 10.1005 6.682L10.0185 6.581L10.5675 4.932C10.6325 4.735 10.5695 4.517 10.4085 4.387L9.02155 3.259L9.08355 3.118ZM23.9345 5.722C23.7785 5.296 23.3705 5.01 22.9165 5.01H21.5185L21.0155 3.598C20.8595 3.175 20.4515 2.891 20.0005 2.891C19.5495 2.891 19.1415 3.175 18.9825 3.603L18.4815 5.009H17.0835C16.6305 5.009 16.2215 5.295 16.0675 5.717C15.9105 6.142 16.0365 6.624 16.3905 6.924L17.5095 7.835L17.0675 9.164C16.9295 9.602 17.0845 10.081 17.4515 10.356C17.6395 10.498 17.8645 10.572 18.1015 10.572C18.3165 10.572 18.5245 10.509 18.7045 10.389L20.0095 9.515L21.3395 10.382C21.7235 10.632 22.2275 10.611 22.5915 10.332C22.9555 10.051 23.1035 9.569 22.9555 9.125L22.5005 7.829L23.6145 6.921C23.9615 6.629 24.0905 6.148 23.9345 5.722ZM21.5965 7.276C21.4335 7.409 21.3705 7.63 21.4405 7.829L22.0115 9.457L21.8845 9.545L20.2785 8.499C20.1105 8.39 19.8935 8.392 19.7275 8.502L18.1485 9.559C18.1305 9.571 18.1135 9.573 18.1015 9.573L18.0195 9.472L18.5685 7.823C18.6335 7.626 18.5705 7.408 18.4095 7.278L17.0225 6.15L17.0845 6.01H18.8345C19.0455 6.01 19.2345 5.877 19.3055 5.678L19.9255 3.94H20.0755L20.6955 5.678C20.7665 5.877 20.9555 6.01 21.1665 6.01H22.9165L22.9765 6.152L21.5965 7.276ZM5.33855 10.383C5.72355 10.633 6.22655 10.612 6.59055 10.333C6.95455 10.052 7.10255 9.57 6.95455 9.126L6.49955 7.83L7.61355 6.922C7.96055 6.63 8.08955 6.148 7.93355 5.722C7.77755 5.296 7.36955 5.01 6.91555 5.01H5.51755L5.01455 3.598C4.85855 3.175 4.45055 2.891 3.99955 2.891C3.54855 2.891 3.14055 3.175 2.98155 3.603L2.48055 5.009H1.08255C0.629548 5.009 0.220548 5.295 0.0665483 5.717C-0.0904518 6.142 0.0355482 6.624 0.389548 6.924L1.50855 7.835L1.06655 9.164C0.928548 9.602 1.08355 10.081 1.45055 10.356C1.63855 10.498 1.86355 10.572 2.10055 10.572C2.31555 10.572 2.52355 10.509 2.70355 10.389L4.00855 9.515L5.33855 10.382V10.383ZM3.72655 8.502L2.14755 9.559C2.12955 9.571 2.11255 9.573 2.10055 9.573L2.01855 9.472L2.56755 7.823C2.63255 7.626 2.56955 7.408 2.40855 7.278L1.02155 6.15L1.08355 6.01H2.83355C3.04455 6.01 3.23355 5.877 3.30455 5.678L3.92455 3.94H4.07455L4.69455 5.678C4.76555 5.877 4.95455 6.01 5.16555 6.01H6.91555L6.97555 6.152L5.59555 7.277C5.43255 7.41 5.36955 7.631 5.43955 7.83L6.01055 9.458L5.88355 9.546L4.27755 8.5C4.11055 8.391 3.89355 8.393 3.72655 8.503V8.502ZM16.9995 14H12.8165L13.4035 10.67C13.4189 10.3313 13.4189 10.1537 13.4035 10.137C13.2825 9.693 13.0015 9.343 12.6125 9.152C12.2185 8.96 11.7645 8.952 11.3315 9.132C11.0775 9.237 10.8295 9.499 10.6525 9.844L8.45655 13.999H7.00055C5.34655 13.999 4.00055 15.345 4.00055 16.999V20.999C4.00055 22.653 5.34655 23.999 7.00055 23.999H15.3795C17.2795 23.999 18.9295 22.646 19.3025 20.783L19.9415 17.587C20.1185 16.702 19.8915 15.795 19.3195 15.097C18.7475 14.399 17.9025 13.999 16.9995 13.999V14ZM5.00055 21V17C5.00055 15.897 5.89755 15 7.00055 15H8.00055V23H7.00055C5.89755 23 5.00055 22.103 5.00055 21ZM18.9605 17.392L18.3215 20.588C18.0415 21.985 16.8045 23 15.3795 23H9.00055V14.839C9.14155 14.748 9.25955 14.621 9.34055 14.467L11.5405 10.306C11.6345 10.122 11.7225 10.055 11.7175 10.055C11.8805 9.987 12.0415 9.986 12.1725 10.05C12.2725 10.099 12.3515 10.185 12.4195 10.341L11.8335 13.825C11.7815 14.117 11.8605 14.414 12.0515 14.643C12.2425 14.87 12.5215 15 12.8175 15H17.0005C17.6025 15 18.1655 15.267 18.5465 15.732C18.9285 16.197 19.0785 16.802 18.9605 17.392Z" fill="black"/>
</svg>
