<svg width="26" height="24" viewBox="0 0 26 24" fill="none" xmlns="http://www.w3.org/2000/svg">
<path d="M23.7407 10.1135C24.5818 11.0673 25.0451 12.2925 25.0451 13.5645V18.7823C25.0451 21.6593 22.7044 24 19.8274 24H5.21773C2.34067 24 0 21.6593 0 18.7823V13.5645C0 10.6875 2.34067 8.34681 5.21773 8.34681H9.39192C9.969 8.34681 10.4355 8.81431 10.4355 9.39035C10.4355 9.96639 9.969 10.4339 9.39192 10.4339H5.21773C3.49171 10.4339 2.08709 11.8385 2.08709 13.5645V18.7823C2.08709 20.5083 3.49171 21.9129 5.21773 21.9129H19.8274C21.5534 21.9129 22.958 20.5083 22.958 18.7823V13.5645C22.958 12.8017 22.6794 12.066 22.1754 11.4941C21.7945 11.0621 21.8352 10.4026 22.2682 10.0207C22.6992 9.6408 23.3587 9.6815 23.7407 10.1135ZM5.21773 16.1734C5.21773 17.0375 5.91899 17.7387 6.78305 17.7387C7.64711 17.7387 8.34837 17.0375 8.34837 16.1734C8.34837 15.3093 7.64711 14.6081 6.78305 14.6081C5.91899 14.6081 5.21773 15.3093 5.21773 16.1734ZM12.0008 17.7387C12.8648 17.7387 13.5661 17.0375 13.5661 16.1734C13.5661 15.3093 12.8648 14.6081 12.0008 14.6081C11.1367 14.6081 10.4355 15.3093 10.4355 16.1734C10.4355 17.0375 11.1367 17.7387 12.0008 17.7387ZM12.5226 11.4774V9.82238C12.5226 8.70787 12.9567 7.65911 13.7456 6.87123L19.7011 0.915712C20.9221 -0.305237 22.9069 -0.305237 24.1278 0.915712C24.7185 1.50636 25.0451 2.29319 25.0451 3.12907C25.0451 3.96495 24.7185 4.75179 24.1278 5.34348L18.1723 11.299C17.3844 12.0869 16.3357 12.522 15.2212 12.522H13.5661C12.989 12.522 12.5226 12.0545 12.5226 11.4785V11.4774ZM14.6096 10.4339H15.2212C15.7784 10.4339 16.3023 10.2168 16.6967 9.82238L22.6523 3.86686C22.8495 3.66963 22.958 3.4077 22.958 3.12907C22.958 2.85045 22.8495 2.58852 22.6523 2.39129C22.2442 1.98326 21.5847 1.9843 21.1767 2.39129L15.2212 8.34681C14.833 8.73605 14.6096 9.27347 14.6096 9.82238V10.4339Z" fill="black"/>
</svg>
