<svg width="24" height="25" viewBox="0 0 24 25" fill="none" xmlns="http://www.w3.org/2000/svg">
<path d="M10.3916 17.0842H4.11914" stroke="#92959E" stroke-width="1.5" stroke-linecap="round" stroke-linejoin="round"/>
<path d="M13.1895 7.41233H19.4619" stroke="#92959E" stroke-width="1.5" stroke-linecap="round" stroke-linejoin="round"/>
<path fill-rule="evenodd" clip-rule="evenodd" d="M8.79494 7.35996C8.79494 6.06752 7.74152 5.01953 6.44239 5.01953C5.14326 5.01953 4.08984 6.06752 4.08984 7.35996C4.08984 8.6524 5.14326 9.7004 6.44239 9.7004C7.74152 9.7004 8.79494 8.6524 8.79494 7.35996Z" stroke="#92959E" stroke-width="1.5" stroke-linecap="round" stroke-linejoin="round"/>
<path fill-rule="evenodd" clip-rule="evenodd" d="M20.0186 17.0436C20.0186 15.7511 18.966 14.7031 17.6668 14.7031C16.3669 14.7031 15.3135 15.7511 15.3135 17.0436C15.3135 18.336 16.3669 19.384 17.6668 19.384C18.966 19.384 20.0186 18.336 20.0186 17.0436Z" stroke="#92959E" stroke-width="1.5" stroke-linecap="round" stroke-linejoin="round"/>
</svg>
