<svg width="20" height="20" viewBox="0 0 20 20" fill="none" xmlns="http://www.w3.org/2000/svg">
<path fill-rule="evenodd" clip-rule="evenodd" d="M1.4416 15.2179L0.0503597 18.9279C-0.00306335 19.0707 -0.0142616 19.2258 0.0181027 19.3748C0.0504669 19.5238 0.125026 19.6603 0.232874 19.768C0.340723 19.8757 0.477303 19.9501 0.626304 19.9824C0.775304 20.0146 0.930427 20.0032 1.07315 19.9496L4.78207 18.5584C5.20658 18.3994 5.59215 18.1514 5.91285 17.831L16.6564 7.08751C16.6564 7.08751 16.2815 5.96414 15.1592 4.84077C14.0369 3.71846 12.9125 3.34365 12.9125 3.34365L2.16899 14.0871C1.84862 14.4079 1.6006 14.7934 1.4416 15.2179ZM14.4107 1.84547L15.875 0.381168C16.1375 0.118589 16.488 -0.0486989 16.8543 0.0127107C17.37 0.0974135 18.1588 0.353639 18.902 1.09797C19.6464 1.84229 19.9026 2.63003 19.9873 3.14566C20.0487 3.512 19.8814 3.86245 19.6188 4.12503L18.1535 5.58933C18.1535 5.58933 17.7797 4.46702 16.6564 3.34471C15.534 2.22028 14.4107 1.84547 14.4107 1.84547Z" fill="#009FF4"/>
</svg>
