<svg width="24" height="24" viewBox="0 0 24 24" fill="none" xmlns="http://www.w3.org/2000/svg">
<path fill-rule="evenodd" clip-rule="evenodd" d="M18.7817 4.71641V3.48214H14.9123C14.838 3.48214 14.7685 3.50753 14.7182 3.54854C14.6679 3.58955 14.6367 3.64619 14.6367 3.70673L14.6367 11.2413L18.7817 11.2413V10.009C18.7817 9.61836 19.1722 9.30003 19.6514 9.30003H23.1303C23.6095 9.30003 24 9.61836 24 10.009V14.0145C24 14.4051 23.6095 14.7234 23.1303 14.7234H19.6514C19.1722 14.7234 18.7817 14.4051 18.7817 14.0145V12.7822L14.6367 12.7822V20.3148C14.6367 20.3753 14.6679 20.4319 14.7182 20.4729C14.7685 20.514 14.838 20.5393 14.9123 20.5393H18.7817V19.2855C18.7817 18.8949 19.1722 18.5766 19.6514 18.5766H23.1303C23.6095 18.5766 24 18.8949 24 19.2855V23.2911C24 23.6817 23.6095 24 23.1303 24H19.6514C19.1722 24 18.7817 23.6817 18.7817 23.2911V22.0744H14.9123C14.3181 22.0744 13.7766 21.8771 13.386 21.5588C12.9955 21.2405 12.7535 20.801 12.7535 20.3148V12.7802H5.21833V14.0125C5.21833 14.4031 4.82779 14.7215 4.34861 14.7215H0.869722C0.390536 14.7215 0 14.4031 0 14.0125L0 10.007C0 9.61641 0.390536 9.29807 0.869722 9.29807H4.34861C4.82779 9.29807 5.21833 9.61641 5.21833 10.007V11.2393H12.7535L12.7535 3.70478C12.7535 3.22044 12.9955 2.77907 13.386 2.46074C13.7766 2.1424 14.3181 1.94515 14.9123 1.94515H18.7817V0.708927C18.7817 0.318335 19.1722 0 19.6514 0H23.1303C23.6095 0 24 0.318335 24 0.708927V4.71446C24 5.10505 23.6095 5.42339 23.1303 5.42339H19.6514C19.1722 5.42534 18.7817 5.10505 18.7817 4.71641Z" fill="black"/>
</svg>
