<svg width="9" height="12" viewBox="0 0 9 12" fill="none" xmlns="http://www.w3.org/2000/svg">
<path d="M4.5 0C2.22197 0 0.375 2.01487 0.375 4.5C0.375 5.47856 0.669078 6.3765 1.15789 7.11188C1.16666 7.1295 1.16803 7.14919 1.178 7.16606L3.928 11.6661C4.05553 11.8748 4.27038 12 4.5 12C4.72963 12 4.94447 11.8748 5.072 11.6661L7.822 7.16606C7.83214 7.14919 7.83334 7.1295 7.84211 7.11188C8.33092 6.3765 8.625 5.47856 8.625 4.5C8.625 2.01487 6.77803 0 4.5 0ZM4.5 6C3.74066 6 3.125 5.32837 3.125 4.5C3.125 3.67162 3.74066 3 4.5 3C5.25934 3 5.875 3.67162 5.875 4.5C5.875 5.32837 5.25934 6 4.5 6Z" fill="#009FF4"/>
</svg>
