<svg width="18" height="18" viewBox="0 0 18 18" fill="none" xmlns="http://www.w3.org/2000/svg">
<path d="M17.25 12C17.1339 12 17.0194 11.973 16.9155 11.9213L15.4155 11.1713C15.2375 11.0823 15.1021 10.9263 15.039 10.7376C14.976 10.5488 14.9906 10.3428 15.0795 10.1648C15.1684 9.98672 15.3244 9.85131 15.5132 9.7883C15.7019 9.72528 15.908 9.73984 16.086 9.82875L17.586 10.5787C17.7374 10.6542 17.8588 10.7786 17.9306 10.9318C18.0024 11.085 18.0203 11.2579 17.9813 11.4226C17.9424 11.5872 17.849 11.7338 17.7162 11.8386C17.5835 11.9435 17.4192 12.0003 17.25 12ZM16.0853 5.175L17.5853 4.425C17.7633 4.33609 17.8987 4.18009 17.9617 3.99134C18.0247 3.80258 18.0102 3.59653 17.9212 3.4185C17.8323 3.24047 17.6763 3.10506 17.4876 3.04205C17.2988 2.97903 17.0928 2.99359 16.9147 3.0825L15.4147 3.8325C15.2367 3.92141 15.1013 4.07741 15.0383 4.26616C14.9753 4.45492 14.9898 4.66097 15.0787 4.839C15.1677 5.01703 15.3237 5.15244 15.5124 5.21545C15.7012 5.27846 15.9072 5.26391 16.0853 5.175ZM18 7.5C18 7.30109 17.921 7.11032 17.7803 6.96967C17.6397 6.82902 17.4489 6.75 17.25 6.75H15.75C15.5511 6.75 15.3603 6.82902 15.2197 6.96967C15.079 7.11032 15 7.30109 15 7.5C15 7.69891 15.079 7.88968 15.2197 8.03033C15.3603 8.17098 15.5511 8.25 15.75 8.25H17.25C17.4489 8.25 17.6397 8.17098 17.7803 8.03033C17.921 7.88968 18 7.69891 18 7.5ZM13.5 14.25V0.75C13.5 0.551088 13.421 0.360322 13.2803 0.21967C13.1397 0.0790176 12.9489 0 12.75 0C12.5511 0 12.3603 0.0790176 12.2197 0.21967C12.079 0.360322 12 0.551088 12 0.75C12 2.96175 10.0627 3.75 8.25 3.75H3C2.20435 3.75 1.44129 4.06607 0.87868 4.62868C0.316071 5.19129 0 5.95435 0 6.75L0 8.25C0 9.04565 0.316071 9.80871 0.87868 10.3713C1.44129 10.9339 2.20435 11.25 3 11.25H8.25C10.0627 11.25 12 12.0382 12 14.25C12 14.4489 12.079 14.6397 12.2197 14.7803C12.3603 14.921 12.5511 15 12.75 15C12.9489 15 13.1397 14.921 13.2803 14.7803C13.421 14.6397 13.5 14.4489 13.5 14.25ZM6.1395 12.75H3C2.65081 12.7486 2.30297 12.7066 1.9635 12.6248L3.8385 16.8113C3.99597 17.1651 4.25264 17.4657 4.57743 17.6767C4.90222 17.8877 5.2812 18 5.6685 18C5.97664 17.9996 6.27978 17.9221 6.55029 17.7745C6.8208 17.6269 7.05007 17.414 7.21723 17.1552C7.38439 16.8963 7.4841 16.5997 7.50729 16.2925C7.53048 15.9852 7.47641 15.677 7.35 15.396L6.1395 12.75Z" fill="white"/>
</svg>
