<svg width="9" height="8" viewBox="0 0 9 8" fill="none" xmlns="http://www.w3.org/2000/svg">
<path d="M4.80763 8C4.76654 8.00001 4.72585 7.9918 4.68798 7.97583C4.65012 7.95986 4.61583 7.93647 4.58715 7.90704C4.55847 7.87761 4.53598 7.84273 4.521 7.80446C4.50602 7.76619 4.49886 7.72531 4.49993 7.68423V4.15629C4.49993 4.11549 4.48373 4.07636 4.45487 4.04751C4.42602 4.01865 4.38689 4.00244 4.34609 4.00244H0.81546C0.750743 4.00321 0.687374 3.98394 0.634042 3.94727C0.58071 3.9106 0.540027 3.85833 0.517571 3.79763C0.491999 3.72524 0.494412 3.64591 0.524336 3.57521C0.55426 3.50451 0.609534 3.44755 0.679304 3.41551L8.06402 0.0279656C8.12108 0.00182421 8.18476 -0.00624648 8.24653 0.00483595C8.3083 0.0159184 8.36521 0.045624 8.40961 0.0899686C8.45402 0.134313 8.48381 0.191176 8.49498 0.252932C8.50615 0.314687 8.49817 0.378381 8.47211 0.435471L5.08744 7.82019C5.06293 7.87382 5.02353 7.91928 4.97393 7.95116C4.92432 7.98304 4.8666 7.99999 4.80763 8Z" fill="#009FF4"/>
</svg>
