<svg width="50" height="50" viewBox="0 0 50 50" fill="none" xmlns="http://www.w3.org/2000/svg">
<g clip-path="url(#clip0_1441_4446)">
<rect width="50" height="50" rx="8" fill="#DADADA"/>
<path d="M25 25.7353L19.0125 21.9931V20.5226L24.9934 24.2606L24.9849 24.2742L25.0066 24.2606L31.0066 20.5106L31.0436 20.4875H31H19H18.9564L18.9875 20.5069V21.9774V22V29.5V29.5125H19H31H31.0125V29.5V22V21.9774L30.9934 21.9894L25 25.7353ZM19 30.9875C18.5908 30.9875 18.2409 30.842 17.9495 30.5505C17.658 30.2591 17.5125 29.9092 17.5125 29.5V20.5C17.5125 20.0908 17.658 19.7409 17.9495 19.4495C18.2409 19.158 18.5908 19.0125 19 19.0125H31C31.4092 19.0125 31.7591 19.158 32.0505 19.4495C32.342 19.7409 32.4875 20.0908 32.4875 20.5V29.5C32.4875 29.9092 32.342 30.2591 32.0505 30.5505C31.7591 30.842 31.4092 30.9875 31 30.9875H19Z" fill="#373737" stroke="#202224" stroke-width="0.025"/>
</g>
<defs>
<clipPath id="clip0_1441_4446">
<rect width="50" height="50" rx="8" fill="white"/>
</clipPath>
</defs>
</svg>
