<svg width="50" height="50" viewBox="0 0 50 50" fill="none" xmlns="http://www.w3.org/2000/svg">
<g clip-path="url(#clip0_1441_4455)">
<path d="M20.5 22.75V17.5H29.5V22.75M20.5 29.5H19C18.6022 29.5 18.2206 29.342 17.9393 29.0607C17.658 28.7794 17.5 28.3978 17.5 28V24.25C17.5 23.8522 17.658 23.4706 17.9393 23.1893C18.2206 22.908 18.6022 22.75 19 22.75H31C31.3978 22.75 31.7794 22.908 32.0607 23.1893C32.342 23.4706 32.5 23.8522 32.5 24.25V28C32.5 28.3978 32.342 28.7794 32.0607 29.0607C31.7794 29.342 31.3978 29.5 31 29.5H29.5M20.5 26.5H29.5V32.5H20.5V26.5Z" stroke="#202224" stroke-width="1.5" stroke-linecap="round" stroke-linejoin="round"/>
</g>
<defs>
<clipPath id="clip0_1441_4455">
<rect width="18" height="18" fill="white" transform="translate(16 16)"/>
</clipPath>
</defs>
</svg>
