<svg width="50" height="50" viewBox="0 0 50 50" fill="none" xmlns="http://www.w3.org/2000/svg">
<path d="M25 25.75C25.4142 25.75 25.75 25.4142 25.75 25C25.75 24.5858 25.4142 24.25 25 24.25C24.5858 24.25 24.25 24.5858 24.25 25C24.25 25.4142 24.5858 25.75 25 25.75Z" stroke="#202224" stroke-width="1.5" stroke-linecap="round" stroke-linejoin="round"/>
<path d="M30.25 25.75C30.6642 25.75 31 25.4142 31 25C31 24.5858 30.6642 24.25 30.25 24.25C29.8358 24.25 29.5 24.5858 29.5 25C29.5 25.4142 29.8358 25.75 30.25 25.75Z" stroke="#202224" stroke-width="1.5" stroke-linecap="round" stroke-linejoin="round"/>
<path d="M19.75 25.75C20.1642 25.75 20.5 25.4142 20.5 25C20.5 24.5858 20.1642 24.25 19.75 24.25C19.3358 24.25 19 24.5858 19 25C19 25.4142 19.3358 25.75 19.75 25.75Z" stroke="#202224" stroke-width="1.5" stroke-linecap="round" stroke-linejoin="round"/>
</svg>
