<svg width="24" height="18" viewBox="0 0 24 18" fill="none" xmlns="http://www.w3.org/2000/svg">
<path d="M5.50781 13.9922C6.33624 13.9922 7.00781 13.3206 7.00781 12.4922C7.00781 11.6638 6.33624 10.9922 5.50781 10.9922C4.67939 10.9922 4.00781 11.6638 4.00781 12.4922C4.00781 13.3206 4.67939 13.9922 5.50781 13.9922Z" fill="black"/>
<path d="M19 0H5C3.67441 0.00158786 2.40356 0.528882 1.46622 1.46622C0.528882 2.40356 0.00158786 3.67441 0 5L0 13C0.00158786 14.3256 0.528882 15.5964 1.46622 16.5338C2.40356 17.4711 3.67441 17.9984 5 18H19C20.3256 17.9984 21.5964 17.4711 22.5338 16.5338C23.4711 15.5964 23.9984 14.3256 24 13V5C23.9984 3.67441 23.4711 2.40356 22.5338 1.46622C21.5964 0.528882 20.3256 0.00158786 19 0ZM5 2H19C19.7956 2 20.5587 2.31607 21.1213 2.87868C21.6839 3.44129 22 4.20435 22 5H2C2 4.20435 2.31607 3.44129 2.87868 2.87868C3.44129 2.31607 4.20435 2 5 2ZM19 16H5C4.20435 16 3.44129 15.6839 2.87868 15.1213C2.31607 14.5587 2 13.7956 2 13V7H22V13C22 13.7956 21.6839 14.5587 21.1213 15.1213C20.5587 15.6839 19.7956 16 19 16Z" fill="black"/>
</svg>
