<svg width="83" height="88" viewBox="0 0 83 88" fill="none" xmlns="http://www.w3.org/2000/svg">
<path d="M59.2228 47.2455C55.5985 43.4175 49.9476 43.0362 45.8909 46.0648L27.6655 26.7415V14.6672C27.6655 11.6092 26.1127 8.76017 23.6123 7.23117L13.3031 0.9245C10.7577 -0.6375 7.53109 -0.182834 5.45264 2.02083L1.90438 5.78283C-0.174074 7.9865 -0.599449 11.4038 0.866885 14.1062L6.81176 25.0365C8.25389 27.6875 10.941 29.3338 13.8287 29.3338H25.217L43.4321 48.6462C42.1732 50.5015 41.4712 52.7015 41.4712 55.0298C41.4712 57.9705 42.5536 60.7315 44.5214 62.8068L65.3441 84.7812C67.2946 86.8418 69.954 88.0005 72.6999 88.0005C76.0822 88.0005 78.8938 86.3578 80.7648 83.9452C84.0951 79.6368 83.6283 73.0075 79.6961 68.8495L59.2228 47.2455ZM9.80668 23.2032L3.8618 12.2728C3.17359 11.0078 3.37418 9.40917 4.34597 8.37883L7.89422 4.61683C8.86601 3.5865 10.3842 3.3775 11.5704 4.09983L21.8763 10.4065C23.3115 11.2828 24.2003 12.9218 24.2003 14.6708V25.6708H13.8253C12.1722 25.6708 10.6332 24.7248 9.80322 23.2068L9.80668 23.2032ZM78.088 81.6168C76.8188 83.2558 75.0274 84.2202 73.0458 84.3228C71.0745 84.4182 69.169 83.6445 67.7822 82.1815L46.9596 60.2072C45.6523 58.8248 44.9295 56.9842 44.9295 55.0298C44.9295 53.0718 45.6488 51.2312 46.9596 49.8415C48.3152 48.4115 50.0928 47.6965 51.8669 47.6965C53.6411 47.6965 55.4221 48.4115 56.7778 49.8415L77.2476 71.4455C79.9313 74.2798 80.2979 78.7495 78.0811 81.6132L78.088 81.6168ZM32.0853 19.7858C34.8001 9.8785 42.7196 2.29217 52.2577 0.455166C56.0446 -0.270834 59.8211 -0.127834 63.4766 0.8805C65.1988 1.35717 66.5061 2.72483 66.9764 4.5435C67.4398 6.34383 66.9764 8.21383 65.7383 9.5375L53.4854 22.6385C51.2513 25.0072 51.2513 28.8572 53.482 31.2222C55.7126 33.5872 59.3404 33.5835 61.571 31.2222L73.8723 18.0698C75.1069 16.7425 76.8568 16.2402 78.5618 16.7168C80.2841 17.2008 81.5878 18.5832 82.0547 20.4165C83.0369 24.2995 83.1994 28.3072 82.5354 32.3405C81.3734 39.4208 77.4586 45.8852 71.7904 50.0798C71.4895 50.3035 71.1437 50.4098 70.8013 50.4098C70.2549 50.4098 69.7188 50.1385 69.3799 49.6252C68.8335 48.7928 69.0237 47.6525 69.8088 47.0732C74.7265 43.4358 78.1226 37.8368 79.1255 31.7135C79.7031 28.2118 79.5613 24.7322 78.7105 21.3735C78.5099 20.5815 77.9186 20.3358 77.673 20.2662C77.4344 20.1892 76.8326 20.1048 76.3243 20.6512L64.0161 33.8108C60.4367 37.6132 54.6163 37.6168 51.0335 33.8182C49.3008 31.9812 48.3463 29.5392 48.3463 26.9358C48.3463 24.3325 49.3008 21.8942 51.0335 20.0572L63.2829 6.95983C63.7982 6.40617 63.7048 5.7645 63.6391 5.5115C63.5734 5.25483 63.3382 4.6315 62.6051 4.42617C59.4338 3.55717 56.1656 3.4325 52.8768 4.06317C44.6183 5.6545 37.7604 12.2252 35.4087 20.8052C35.1424 21.7768 34.1948 22.3378 33.2646 22.0555C32.3481 21.7732 31.8224 20.7575 32.0887 19.7822L32.0853 19.7858ZM36.6814 62.1468C37.3558 62.8655 37.3558 64.0278 36.6814 64.7428L17.7228 84.7848C15.7723 86.8455 13.1128 88.0042 10.3669 88.0042C6.91897 88.0042 4.17305 86.3652 2.30555 83.9525C-1.02828 79.6442 -0.561407 73.0148 3.37072 68.8568L27.4995 43.3478C28.1773 42.6402 29.2702 42.6365 29.9446 43.3478C30.6189 44.0665 30.6189 45.2288 29.9446 45.9438L5.81576 71.4528C3.13209 74.2872 2.76551 78.7568 4.9823 81.6205C6.25151 83.2595 8.04293 84.2202 10.0246 84.3228C12.0269 84.4695 13.9013 83.6445 15.2847 82.1815L34.2433 62.1395C34.9176 61.4318 36.0139 61.4282 36.6883 62.1395L36.6814 62.1468Z" fill="black"/>
</svg>
