<svg width="22" height="24" viewBox="0 0 22 24" fill="none" xmlns="http://www.w3.org/2000/svg">
<path d="M5.00673 18.2331L5.27549 18.463C6.06891 19.1417 6.98092 19.668 7.9656 20.0155L8.29921 20.1332V20.487V21C8.29921 22.3806 9.41874 23.5 10.8 23.5C12.1813 23.5 13.3008 22.3806 13.3008 21V20.487V20.1334L13.6342 20.0156C14.619 19.6675 15.531 19.1406 16.3243 18.4612L16.593 18.2311L16.8994 18.4079L17.3464 18.6659C18.5436 19.3564 20.0741 18.9458 20.7647 17.7491L21.1977 17.999L20.7647 17.7491C21.4552 16.5524 21.0448 15.0226 19.8477 14.3321C19.8477 14.3321 19.8477 14.3321 19.8476 14.3321L19.4036 14.0762L19.0977 13.8998L19.1615 13.5526C19.3505 12.5248 19.3505 11.4712 19.1615 10.4434L19.0977 10.0961L19.4036 9.91976L19.8476 9.66385C19.8477 9.66382 19.8477 9.6638 19.8477 9.66378C21.0448 8.97328 21.4552 7.44352 20.7647 6.24686C20.0741 5.05013 18.5437 4.63955 17.3464 5.33006L16.9016 5.58695L16.5956 5.76359L16.327 5.53428C15.5327 4.85645 14.6201 4.33111 13.6349 3.98469L13.3008 3.86719V3.513V3C13.3008 1.61942 12.1813 0.5 10.8 0.5C9.41874 0.5 8.29921 1.61942 8.29921 3V3.513V3.8666L7.96583 3.98442C6.981 4.33249 6.06895 4.85942 5.27572 5.53878L5.00654 5.76931L4.69987 5.59168L4.25355 5.33315C4.25344 5.33309 4.25333 5.33303 4.25323 5.33297C3.05605 4.64267 1.52589 5.05328 0.835337 6.24991C0.144772 7.44657 0.55524 8.97643 1.75239 9.66689L2.19638 9.92281L2.50229 10.0991L2.43845 10.4464C2.24951 11.4742 2.24951 12.5278 2.43845 13.5556L2.50229 13.9029L2.19638 14.0792L1.7534 14.3345C1.75324 14.3346 1.75308 14.3347 1.75292 14.3348C0.559239 15.0274 0.150151 16.5542 0.837569 17.7505C1.52708 18.9467 3.05616 19.3578 4.2529 18.6684C4.25133 18.6693 4.25033 18.6699 4.25099 18.6695L5.00673 18.2331ZM5.00673 18.2331L4.70045 18.41M5.00673 18.2331L4.70045 18.41M4.70045 18.41L4.25731 18.6658L4.25535 18.667M4.70045 18.41L4.25535 18.667M4.25535 18.667L4.2544 18.6675L4.25535 18.667ZM15.301 12C15.301 9.51461 13.2857 7.50002 10.8 7.50002C8.31428 7.50002 6.29897 9.51461 6.29897 12C6.29897 14.4854 8.31428 16.5 10.8 16.5C13.2857 16.5 15.301 14.4854 15.301 12Z" stroke="black"/>
</svg>
