<svg width="24" height="24" viewBox="0 0 24 24" fill="none" xmlns="http://www.w3.org/2000/svg">
<path d="M18.9992 1.99992H17.9992V0.999958C17.9992 0.447981 17.5513 0 16.9993 0C16.4473 0 15.9993 0.447981 15.9993 0.999958V1.99992H7.99967V0.999958C7.99967 0.447981 7.55168 0 6.99971 0C6.44773 0 5.99975 0.447981 5.99975 0.999958V1.99992H4.99979C2.24291 1.99992 0 4.24282 0 6.99971V18.9992C0 21.7561 2.24291 23.999 4.99979 23.999H8.99962C9.5516 23.999 9.99958 23.551 9.99958 22.999C9.99958 22.4471 9.5516 21.9991 8.99962 21.9991H4.99979C3.34586 21.9991 1.99992 20.6531 1.99992 18.9992V9.99958H22.999C23.551 9.99958 23.999 9.5516 23.999 8.99963V6.99971C23.999 4.24282 21.7561 1.99992 18.9992 1.99992ZM21.9991 7.99967H1.99992V6.99971C1.99992 5.34578 3.34586 3.99983 4.99979 3.99983H18.9992C20.6531 3.99983 21.9991 5.34578 21.9991 6.99971V7.99967ZM18.8782 12.8785L13.1715 18.5852C12.4165 19.3402 11.9995 20.3452 11.9995 21.4141V23C11.9995 23.552 12.4475 24 12.9995 24H14.5854C15.6543 24 16.6583 23.583 17.4133 22.828L23.12 17.1213C23.687 16.5543 23.999 15.8013 23.999 14.9994C23.999 14.1974 23.687 13.4444 23.121 12.8785C21.9871 11.7445 20.0112 11.7445 18.8782 12.8785ZM21.7061 15.7063L15.9983 21.4131C15.6213 21.7911 15.1194 21.9991 14.5844 21.9991H13.9984V21.4131C13.9984 20.8791 14.2064 20.3772 14.5844 19.9992L20.2922 14.2924C20.6691 13.9144 21.3281 13.9144 21.7061 14.2924C21.8951 14.4804 21.9991 14.7314 21.9991 14.9994C21.9991 15.2674 21.8951 15.5174 21.7061 15.7063ZM4.99979 13.9994C4.99979 13.4474 5.44777 12.9995 5.99975 12.9995H12.9995C13.5514 12.9995 13.9994 13.4474 13.9994 13.9994C13.9994 14.5514 13.5514 14.9994 12.9995 14.9994H5.99975C5.44777 14.9994 4.99979 14.5514 4.99979 13.9994ZM10.9995 17.9993C10.9995 18.5512 10.5516 18.9992 9.99958 18.9992H5.99975C5.44777 18.9992 4.99979 18.5512 4.99979 17.9993C4.99979 17.4473 5.44777 16.9993 5.99975 16.9993H9.99958C10.5516 16.9993 10.9995 17.4473 10.9995 17.9993Z" fill="black"/>
</svg>
