<svg width="23" height="20" viewBox="0 0 23 20" fill="none" xmlns="http://www.w3.org/2000/svg">
<path d="M11.1329 19.1095C14.1705 19.1095 16.6329 16.647 16.6329 13.6094C16.6329 10.5718 14.1705 8.10938 11.1329 8.10938C8.09527 8.10938 5.63281 10.5718 5.63281 13.6094C5.63281 16.647 8.09527 19.1095 11.1329 19.1095Z" fill="white"/>
<path d="M10.5673 6.29844L7.19671 0.458297C7.11625 0.318956 7.00054 0.203247 6.86119 0.1228C6.72184 0.042352 6.56377 0 6.40287 0C6.24197 0 6.0839 0.042352 5.94455 0.1228C5.80521 0.203247 5.68949 0.318956 5.60903 0.458297L0.132812 9.94314H4.78402C5.38004 8.91206 6.21797 8.04148 7.22553 7.40651C8.23308 6.77153 9.38 6.39124 10.5673 6.29844Z" fill="white"/>
<path d="M12.0469 1.69141V6.33162C13.5034 6.51771 14.8709 7.13561 15.9732 8.10572C17.0754 9.07584 17.8621 10.3537 18.2317 11.7748H22.1303V1.69141H12.0469Z" fill="white"/>
</svg>
