<svg width="18" height="18" viewBox="0 0 18 18" fill="none" xmlns="http://www.w3.org/2000/svg">
<path d="M17.4536 6.77532C17.0266 6.28012 16.4049 6.0025 15.7531 6.0025H15.6857C15.3112 2.6336 12.4496 0 8.98876 0C5.52792 0 2.66635 2.6336 2.2918 6.0025H2.24686C1.59514 6.0025 0.973386 6.28762 0.546399 6.77532C0.119411 7.27053 -0.067864 7.9233 0.022028 8.56857L0.816075 14.1359C1.1307 16.3418 3.0409 18 5.26573 18H12.7343C14.9591 18 16.8693 16.3418 17.1839 14.1359L17.978 8.56857C18.0679 7.9233 17.8806 7.27053 17.4536 6.77532ZM8.98876 1.50063C11.6256 1.50063 13.8055 3.45894 14.1725 6.0025H3.80499C4.17205 3.45894 6.35193 1.50063 8.98876 1.50063Z" fill="white"/>
</svg>
