<svg width="18" height="18" viewBox="0 0 18 18" fill="none" xmlns="http://www.w3.org/2000/svg">
<path d="M0 14.248C0.00119089 15.2422 0.396661 16.1954 1.09966 16.8984C1.80267 17.6014 2.7558 17.9969 3.75 17.998H14.25C15.2442 17.9969 16.1973 17.6014 16.9003 16.8984C17.6033 16.1954 17.9988 15.2422 18 14.248V7.49805H0V14.248ZM12.75 10.873C12.9725 10.873 13.19 10.939 13.375 11.0626C13.56 11.1863 13.7042 11.362 13.7894 11.5675C13.8745 11.7731 13.8968 11.9993 13.8534 12.2175C13.81 12.4358 13.7028 12.6362 13.5455 12.7935C13.3882 12.9509 13.1877 13.058 12.9695 13.1014C12.7512 13.1448 12.525 13.1226 12.3195 13.0374C12.1139 12.9523 11.9382 12.8081 11.8146 12.6231C11.691 12.4381 11.625 12.2206 11.625 11.998C11.625 11.6997 11.7435 11.4135 11.9545 11.2026C12.1655 10.9916 12.4516 10.873 12.75 10.873ZM9 10.873C9.2225 10.873 9.44001 10.939 9.62502 11.0626C9.81002 11.1863 9.95422 11.362 10.0394 11.5675C10.1245 11.7731 10.1468 11.9993 10.1034 12.2175C10.06 12.4358 9.95283 12.6362 9.7955 12.7935C9.63816 12.9509 9.43771 13.058 9.21948 13.1014C9.00125 13.1448 8.77505 13.1226 8.56948 13.0374C8.36391 12.9523 8.18821 12.8081 8.0646 12.6231C7.94098 12.4381 7.875 12.2206 7.875 11.998C7.875 11.6997 7.99353 11.4135 8.2045 11.2026C8.41548 10.9916 8.70163 10.873 9 10.873ZM5.25 10.873C5.4725 10.873 5.69001 10.939 5.87502 11.0626C6.06002 11.1863 6.20422 11.362 6.28936 11.5675C6.37451 11.7731 6.39679 11.9993 6.35338 12.2175C6.30998 12.4358 6.20283 12.6362 6.0455 12.7935C5.88816 12.9509 5.68771 13.058 5.46948 13.1014C5.25125 13.1448 5.02505 13.1226 4.81948 13.0374C4.61391 12.9523 4.43821 12.8081 4.3146 12.6231C4.19098 12.4381 4.125 12.2206 4.125 11.998C4.125 11.6997 4.24353 11.4135 4.4545 11.2026C4.66548 10.9916 4.95163 10.873 5.25 10.873Z" fill="white"/>
<path d="M14.25 1.5H13.5V0.75C13.5 0.551088 13.421 0.360322 13.2803 0.21967C13.1397 0.0790176 12.9489 0 12.75 0C12.5511 0 12.3603 0.0790176 12.2197 0.21967C12.079 0.360322 12 0.551088 12 0.75V1.5H6V0.75C6 0.551088 5.92098 0.360322 5.78033 0.21967C5.63968 0.0790176 5.44891 0 5.25 0C5.05109 0 4.86032 0.0790176 4.71967 0.21967C4.57902 0.360322 4.5 0.551088 4.5 0.75V1.5H3.75C2.7558 1.50119 1.80267 1.89666 1.09966 2.59966C0.396661 3.30267 0.00119089 4.2558 0 5.25L0 6H18V5.25C17.9988 4.2558 17.6033 3.30267 16.9003 2.59966C16.1973 1.89666 15.2442 1.50119 14.25 1.5Z" fill="white"/>
</svg>
