<svg width="24" height="24" viewBox="0 0 24 24" fill="none" xmlns="http://www.w3.org/2000/svg">
<path d="M9.55254 14.3974C10.2275 15.0574 11.1135 15.3874 11.9994 15.3874C12.8854 15.3874 13.7714 15.0574 14.4463 14.3974L16.9482 11.9495C18.2702 10.6276 18.9991 8.86963 18.9991 6.99971C18.9991 5.12979 18.2702 3.37286 16.9482 2.04991C15.6273 0.72797 13.8694 0 11.9994 0C10.1295 0 8.37259 0.72797 7.04964 2.04991C4.32075 4.7788 4.32075 9.21962 7.05764 11.9565L9.55254 14.3964V14.3974ZM8.46458 3.46486C9.40854 2.52089 10.6645 2.00092 12.0004 2.00092C13.3364 2.00092 14.5913 2.52089 15.5353 3.46486C16.4792 4.40882 17.0002 5.66476 17.0002 7.00071C17.0002 8.33665 16.4792 9.5916 15.5433 10.5286L13.0494 12.9685C12.4714 13.5324 11.5295 13.5324 10.9515 12.9685L8.46458 10.5366C7.52062 9.5926 7.00064 8.33665 7.00064 7.00071C7.00064 5.66476 7.52062 4.40982 8.46458 3.46486ZM8.99956 6.99071C8.99956 5.33378 10.3425 3.99083 11.9994 3.99083C13.6564 3.99083 14.9993 5.33378 14.9993 6.99071C14.9993 8.64764 13.6564 9.99058 11.9994 9.99058C10.3425 9.99058 8.99956 8.64764 8.99956 6.99071ZM23.9439 19.3432L22.944 13.3434C22.804 12.5025 22.409 11.7425 21.8 11.1455C21.404 10.7596 20.7721 10.7636 20.3861 11.1605C19.9991 11.5545 20.0051 12.1875 20.4001 12.5745C20.7041 12.8715 20.9011 13.2514 20.9711 13.6714L21.359 16.0003H2.63882L3.02681 13.6714C3.10181 13.2244 3.3278 12.8115 3.66578 12.5105C4.07776 12.1425 4.11276 11.5105 3.74478 11.0985C3.37679 10.6866 2.74482 10.6516 2.33284 11.0195C1.65787 11.6235 1.20388 12.4485 1.05489 13.3434L0.0549326 19.3422C-0.139059 20.5041 0.185927 21.6861 0.947895 22.5851C1.70886 23.484 2.82182 24 3.99977 24H19.9991C21.1771 24 22.289 23.484 23.051 22.5861C23.8129 21.6871 24.1369 20.5051 23.9439 19.3432ZM14.9473 18.0002L15.5043 22.0001H8.49358L9.04956 18.0002H14.9473ZM2.47283 21.2931C2.09285 20.8431 1.92985 20.2522 2.02685 19.6712L2.30584 18.0002H7.03164L6.47566 22.0001H3.99977C3.41079 22.0001 2.85282 21.7421 2.47283 21.2931ZM21.524 21.2931C21.1431 21.7421 20.5871 22.0001 19.9991 22.0001H17.5232L16.9662 18.0002H21.693L21.972 19.6712C22.069 20.2522 21.905 20.8431 21.524 21.2931Z" fill="black"/>
</svg>
