<svg width="18" height="21" viewBox="0 0 18 21" fill="none" xmlns="http://www.w3.org/2000/svg">
<path d="M0.336908 15.75C1.02639 17.0061 2.55542 17.4377 3.75206 16.7139C3.75288 16.7135 3.75366 16.713 3.75448 16.7125L4.1254 16.4876C4.82558 17.1164 5.63041 17.6041 6.49934 17.9261V18.375C6.49934 19.8247 7.61893 21 9 21C10.3811 21 11.5007 19.8247 11.5007 18.375V17.9261C12.3697 17.6036 13.1746 17.1154 13.8746 16.4859L14.2472 16.7116C15.4441 17.4365 16.9742 17.0056 17.6648 15.7491C18.3553 14.4927 17.9448 12.8865 16.7479 12.1616L16.3778 11.9376C16.5444 10.986 16.5444 10.0105 16.3778 9.05883L16.7479 8.83485C17.9448 8.10998 18.3553 6.50381 17.6648 5.24733C16.9742 3.9909 15.4442 3.55995 14.2472 4.28482L13.8763 4.50971C13.1754 3.88164 12.37 3.39486 11.5007 3.07387V2.625C11.5007 1.17526 10.3811 0 9 0C7.61893 0 6.49934 1.17526 6.49934 2.625V3.07387C5.63029 3.39638 4.82543 3.88463 4.1254 4.51414L3.7528 4.28753C2.55585 3.56262 1.02576 3.99357 0.335228 5.25C-0.355305 6.50643 0.0551937 8.11264 1.25215 8.83751L1.62225 9.0615C1.45564 10.0131 1.45564 10.9886 1.62225 11.9403L1.25215 12.1642C0.0585149 12.891 -0.350655 14.4941 0.336908 15.75ZM9 7.00001C10.8414 7.00001 12.3342 8.56702 12.3342 10.5C12.3342 12.433 10.8414 14 9 14C7.15858 14 5.66581 12.433 5.66581 10.5C5.66581 8.56702 7.15858 7.00001 9 7.00001Z" fill="white"/>
</svg>
