<svg width="24" height="24" viewBox="0 0 24 24" fill="none" xmlns="http://www.w3.org/2000/svg">
<g clip-path="url(#clip0_2081_7991)">
<path d="M19.136 3.65332C19.0715 3.58887 19.0051 3.54238 18.9368 3.51348C18.8727 3.48633 18.7979 3.47305 18.7122 3.47305C18.626 3.47305 18.5497 3.48672 18.4848 3.51426C18.4176 3.54258 18.3528 3.58828 18.2907 3.65137L18.2866 3.65547L17.0743 4.86406C16.8926 5.04473 16.612 5.06484 16.4083 4.92519C16.2657 4.83301 16.1137 4.74414 15.9544 4.65801C15.7854 4.5666 15.6198 4.48457 15.4581 4.41035C15.2895 4.3334 15.1175 4.26094 14.9423 4.19297C14.7835 4.13125 14.6065 4.06836 14.4136 4.00469C14.1927 3.93184 14.0522 3.72637 14.0522 3.50547V1.64648C14.0522 1.55742 14.0382 1.47871 14.0102 1.41016C13.9823 1.34238 13.9397 1.2793 13.8809 1.2207C13.8237 1.16348 13.7616 1.12109 13.6936 1.09355C13.6253 1.06562 13.5464 1.05176 13.4571 1.05176H11.1241C11.0415 1.05176 10.9683 1.06504 10.9042 1.0916C10.8362 1.11953 10.7696 1.16523 10.7038 1.22891L10.703 1.22949C10.6452 1.2873 10.6026 1.34883 10.5753 1.41426C10.5472 1.48125 10.5331 1.55859 10.5331 1.64648V3.34844C10.5331 3.60723 10.3462 3.82227 10.1001 3.86621C9.9132 3.91074 9.74055 3.95684 9.58332 4.00508C9.41106 4.05781 9.23782 4.11777 9.06418 4.18555C9.05559 4.18887 9.047 4.19199 9.0384 4.19473C8.88665 4.25371 8.72669 4.32207 8.55872 4.39961C8.38802 4.47832 8.22904 4.5582 8.08177 4.63848C7.87416 4.75156 7.62377 4.70957 7.46361 4.55195L7.46342 4.55215L6.12085 3.22891C6.11675 3.2248 6.11265 3.2207 6.10854 3.2166C6.05132 3.15605 5.99116 3.11191 5.92808 3.08437C5.86753 3.05801 5.79585 3.04453 5.71226 3.04453C5.62925 3.04453 5.55503 3.05859 5.4898 3.08652C5.41832 3.11699 5.34996 3.16465 5.28433 3.22891L5.28394 3.2293L3.65524 4.86172L3.65427 4.86289L3.65524 4.86387C3.58845 4.93066 3.54118 4.99707 3.51325 5.06309C3.4861 5.12715 3.47263 5.20195 3.47263 5.2875C3.47263 5.37383 3.4863 5.45 3.51384 5.51523C3.54216 5.58223 3.58767 5.64707 3.65095 5.70918L3.65505 5.71328L4.86363 6.92578C5.0443 7.10742 5.06441 7.38809 4.92477 7.5918C4.83258 7.73457 4.74371 7.88633 4.65777 8.0457C4.56637 8.21484 4.48434 8.38008 4.41012 8.54219C4.33297 8.71055 4.26051 8.88281 4.19235 9.05801C4.13063 9.2166 4.06794 9.39355 4.00426 9.58652C3.93141 9.80762 3.72575 9.94785 3.50505 9.94785L1.64667 9.94805C1.55721 9.94805 1.4787 9.96191 1.41014 9.98965C1.34257 10.0174 1.28007 10.0596 1.22304 10.1168L1.22089 10.1191C1.16366 10.1764 1.12128 10.2387 1.09355 10.3062C1.06562 10.3748 1.05194 10.4535 1.05194 10.5428V12.876C1.05194 12.9584 1.06503 13.0318 1.09159 13.0957C1.11972 13.1637 1.16542 13.2303 1.22909 13.2963L1.22968 13.2967C1.28729 13.3545 1.34901 13.3973 1.41425 13.4244C1.48143 13.4525 1.55878 13.4666 1.64667 13.4666H3.34841C3.6072 13.4666 3.82223 13.6535 3.86618 13.8998C3.91071 14.0865 3.9568 14.2594 4.00505 14.4166C4.05798 14.5889 4.11774 14.7619 4.18551 14.9355C4.24918 15.101 4.32145 15.2729 4.40192 15.451C4.48414 15.6332 4.56461 15.7992 4.64274 15.9494C4.75152 16.1576 4.70641 16.4057 4.54781 16.5633L4.54821 16.5637L3.22478 17.8832L3.21638 17.8914C3.15583 17.9488 3.11169 18.009 3.08435 18.0719C3.05779 18.1324 3.04451 18.2043 3.04451 18.2879C3.04451 18.3709 3.05857 18.4449 3.0863 18.5102C3.11677 18.5816 3.16443 18.6502 3.22888 18.7156L4.85172 20.3572C4.91519 20.416 4.98141 20.459 5.05074 20.4861C5.12027 20.5137 5.19918 20.5271 5.28746 20.5271C5.37652 20.5271 5.45679 20.5133 5.52749 20.4853C5.59546 20.4586 5.65933 20.4176 5.71851 20.3621L6.92143 19.14C7.10287 18.9557 7.38705 18.9336 7.59291 19.0758C7.73529 19.1676 7.88665 19.2561 8.04564 19.3418C8.21478 19.4334 8.38001 19.5154 8.54212 19.5895C8.71048 19.6668 8.88274 19.7393 9.05793 19.8072C9.21653 19.8687 9.39328 19.9316 9.58645 19.9953C9.80754 20.0682 9.94777 20.2738 9.94777 20.4945L9.94797 22.3535C9.94797 22.4426 9.96183 22.5213 9.98976 22.5898C10.0175 22.6576 10.0597 22.7199 10.1169 22.7771L10.1179 22.7783L10.1189 22.7771C10.2335 22.8918 10.3741 22.9482 10.5425 22.9482H12.8753C12.9581 22.9482 13.0313 22.9352 13.0954 22.9086C13.1634 22.8805 13.23 22.8348 13.2956 22.7711L13.2964 22.7705C13.354 22.7127 13.3968 22.6512 13.4241 22.5859C13.4524 22.5187 13.4665 22.4416 13.4665 22.3537V20.6516C13.4665 20.393 13.653 20.1777 13.8995 20.134C14.086 20.0895 14.2589 20.0432 14.4163 19.9951C14.5884 19.9422 14.7616 19.8824 14.935 19.8148C15.1007 19.751 15.2727 19.6787 15.4512 19.5982C15.6329 19.516 15.7991 19.4357 15.9487 19.3576C16.1573 19.2488 16.4053 19.2941 16.563 19.4525L16.5633 19.4521L17.8829 20.7754L17.8909 20.7838C17.9489 20.8447 18.009 20.8887 18.0717 20.916C18.1331 20.9424 18.2071 20.9559 18.2954 20.9559C18.3819 20.9559 18.4571 20.9418 18.5219 20.9139C18.5872 20.8855 18.6479 20.842 18.7032 20.7836C18.7092 20.777 18.7157 20.7705 18.7227 20.7641L20.3573 19.1484C20.4157 19.0852 20.4588 19.0187 20.4858 18.9494C20.5133 18.8799 20.527 18.8008 20.527 18.7125C20.527 18.6234 20.5133 18.5432 20.4854 18.4725C20.4582 18.4045 20.4174 18.3408 20.3617 18.2816L19.1399 17.0785C18.9553 16.8971 18.9334 16.6131 19.0754 16.407C19.1674 16.2646 19.2559 16.1133 19.3416 15.9545C19.4332 15.7855 19.5153 15.6201 19.5893 15.458C19.6664 15.2896 19.7389 15.1174 19.8071 14.9422C19.8684 14.7836 19.9315 14.6066 19.9952 14.4135C20.068 14.1924 20.2737 14.0521 20.4946 14.0521L22.3531 14.052C22.4424 14.052 22.5213 14.0381 22.5897 14.0102C22.6572 13.9824 22.7197 13.9402 22.777 13.8832L22.7789 13.8811C22.8361 13.8236 22.8789 13.7613 22.9063 13.6936C22.9342 13.6252 22.9479 13.5465 22.9479 13.4572V11.124C22.9479 11.0416 22.935 10.9682 22.9082 10.9041C22.8803 10.8363 22.8346 10.7695 22.7709 10.7035L22.7701 10.7029C22.7125 10.6451 22.6508 10.6025 22.5856 10.5752C22.5188 10.5471 22.4414 10.533 22.3533 10.533H20.6516C20.3895 10.533 20.1725 10.3418 20.1325 10.0912C20.0912 9.92656 20.0448 9.75957 19.992 9.59004C19.9412 9.42734 19.8819 9.25527 19.8123 9.07344C19.8088 9.06465 19.8059 9.05566 19.8032 9.04668C19.7371 8.87383 19.6696 8.71133 19.6002 8.55918C19.525 8.39453 19.4454 8.23535 19.361 8.08144C19.2481 7.87383 19.2901 7.62344 19.4475 7.46328V7.46309L20.7707 6.12051C20.7748 6.11641 20.7787 6.1123 20.783 6.1082C20.8438 6.05098 20.8879 5.99082 20.9155 5.92793C20.9418 5.86738 20.9555 5.7957 20.9555 5.71211C20.9555 5.6291 20.9414 5.55488 20.9135 5.48965C20.883 5.41816 20.8354 5.3498 20.7709 5.28418L20.7705 5.28379L19.1379 3.65508L19.136 3.65332ZM19.3434 2.54766C19.5391 2.63027 19.7168 2.75117 19.877 2.91133L19.8774 2.91152L21.5143 4.54473L21.5184 4.54883C21.676 4.70898 21.7965 4.88535 21.8789 5.07871C21.9641 5.27812 22.007 5.48926 22.007 5.71211C22.007 5.93828 21.9631 6.14961 21.8766 6.34707C21.7922 6.54082 21.669 6.71309 21.5096 6.86523L20.4614 7.92871C20.4922 7.99297 20.5231 8.05801 20.553 8.12383C20.6369 8.30703 20.7139 8.49062 20.7838 8.67441C20.7877 8.68262 20.791 8.69102 20.7942 8.69961C20.8639 8.88262 20.9307 9.07715 20.9944 9.28183C21.0149 9.34785 21.0348 9.41426 21.0539 9.48125H22.3531C22.5789 9.48125 22.7902 9.52266 22.9883 9.60547C23.1828 9.68691 23.3586 9.80703 23.5154 9.96504L23.5266 9.97617C23.6811 10.1359 23.7982 10.3121 23.8779 10.5055C23.9596 10.7021 24 10.9082 24 11.124V13.457C24 13.6814 23.9604 13.8916 23.8803 14.0879C23.8002 14.2838 23.6809 14.4617 23.5213 14.6217L23.5205 14.6223L23.5193 14.6236L23.5186 14.6244C23.3584 14.784 23.1807 14.9037 22.9842 14.9838C22.7877 15.0637 22.5776 15.1035 22.3533 15.1035H20.8672C20.8412 15.1734 20.8143 15.2457 20.7852 15.3195C20.7108 15.5107 20.6303 15.702 20.543 15.893C20.4526 16.0904 20.3606 16.277 20.2668 16.451C20.236 16.508 20.2043 16.5648 20.1719 16.6217L21.0996 17.535C21.1065 17.5414 21.1129 17.5478 21.1199 17.5549C21.2721 17.7158 21.3865 17.8945 21.4637 18.0898C21.541 18.2859 21.5793 18.4937 21.5793 18.7121C21.5793 18.9297 21.5412 19.1357 21.4645 19.3311C21.3877 19.5258 21.2744 19.7037 21.1239 19.865C21.1186 19.8705 21.1131 19.8762 21.1074 19.8816L19.461 21.5092C19.3065 21.6711 19.1325 21.7949 18.9372 21.8789C18.7399 21.9641 18.5266 22.0072 18.2959 22.0072C18.0702 22.0072 17.8573 21.9631 17.6573 21.877C17.4592 21.7912 17.2842 21.6672 17.1317 21.5062L16.088 20.4598C16.0182 20.4934 15.9499 20.5252 15.8835 20.5553C15.7057 20.6353 15.5157 20.7145 15.3139 20.7924C15.1243 20.8662 14.9264 20.9344 14.7212 20.9973C14.6528 21.0182 14.5854 21.0381 14.519 21.057V22.3535C14.519 22.5791 14.4774 22.7906 14.3946 22.9885C14.313 23.1832 14.1932 23.3588 14.0348 23.5158L14.0237 23.5271C13.864 23.6812 13.6876 23.7982 13.4946 23.8783C13.2977 23.9598 13.0917 24.0002 12.8759 24.0002H10.5427C10.0839 24.0002 9.69641 23.842 9.37531 23.5209L9.37629 23.5199C9.21614 23.3596 9.09602 23.1812 9.01594 22.9846C8.93587 22.7881 8.89602 22.5781 8.89602 22.3537V20.8676C8.8259 20.8416 8.75384 20.8145 8.67981 20.7855C8.4888 20.7111 8.29759 20.6307 8.10658 20.5432C7.90912 20.4529 7.72259 20.3607 7.54838 20.2668C7.49154 20.2361 7.43471 20.2045 7.37787 20.1721L6.4646 21.0998C6.45815 21.1066 6.45151 21.1133 6.44467 21.1199C6.28374 21.2725 6.10503 21.3869 5.90972 21.4639C5.71363 21.5412 5.50582 21.5797 5.28746 21.5797C5.06988 21.5797 4.86363 21.5416 4.66852 21.4646C4.47379 21.3879 4.29606 21.2746 4.13454 21.1242L4.13473 21.1238C4.12907 21.1187 4.1234 21.1133 4.11813 21.1076L2.48123 19.4518C2.32381 19.2916 2.2033 19.115 2.12088 18.9217C2.03592 18.7221 1.99276 18.5111 1.99276 18.2885C1.99276 18.0623 2.0367 17.851 2.12303 17.6533C2.20838 17.4582 2.33221 17.285 2.49353 17.1318L3.54021 16.0881C3.50661 16.0184 3.47458 15.95 3.4445 15.883C3.36423 15.7055 3.28533 15.5158 3.20759 15.3143C3.13376 15.1246 3.0654 14.9268 3.00251 14.7213C2.98162 14.6527 2.96169 14.5855 2.94275 14.5191H1.64667C1.42089 14.5191 1.20937 14.4775 1.01171 14.3947C0.81679 14.3133 0.641206 14.1934 0.484371 14.0352L0.473043 14.0234C0.318747 13.8639 0.201756 13.6875 0.121874 13.4943C0.0404294 13.2975 0 13.0914 0 12.876V10.5428C0 10.3184 0.0398434 10.1082 0.119921 9.91191C0.199998 9.71562 0.319333 9.53769 0.479098 9.37773L0.479293 9.37754L0.480465 9.37656L0.481441 9.37558C0.641596 9.21582 0.819329 9.09629 1.01581 9.01621C1.2121 8.93613 1.42225 8.89648 1.64667 8.89648H3.13279C3.15857 8.82637 3.18591 8.7543 3.21482 8.68027C3.28904 8.48926 3.3697 8.29805 3.4572 8.10684C3.54743 7.90937 3.63942 7.72285 3.73356 7.54883C3.76481 7.49082 3.79723 7.43281 3.83044 7.3748L2.91619 6.45762L2.9158 6.45742C2.75427 6.29863 2.63201 6.11992 2.54861 5.92246C2.46326 5.7209 2.42107 5.50879 2.42107 5.28789C2.42107 5.06738 2.46307 4.85723 2.54783 4.65664C2.63181 4.45801 2.75291 4.2793 2.9117 4.12051L2.91267 4.12148L4.54469 2.48555L4.54879 2.48145C4.70895 2.32402 4.88531 2.20352 5.07867 2.12109C5.27828 2.03613 5.48921 1.99277 5.71206 1.99277C5.93804 1.99277 6.14936 2.03672 6.34702 2.12305C6.54077 2.20762 6.71303 2.33066 6.86518 2.49023L7.92787 3.5375C7.99173 3.50586 8.0554 3.47559 8.11888 3.44629C8.28236 3.3709 8.46282 3.29492 8.66028 3.21836C8.66868 3.21445 8.67727 3.21094 8.68587 3.20762C8.87551 3.13379 9.07356 3.06543 9.27903 3.00254C9.34739 2.98164 9.41477 2.96172 9.48117 2.94277V1.64648C9.48117 1.4209 9.52277 1.20937 9.60559 1.01172C9.68703 0.816797 9.80715 0.641211 9.96515 0.48418L9.97629 0.473047C10.1361 0.31875 10.3122 0.201953 10.5054 0.12207C10.7023 0.0404297 10.9083 0 11.1241 0H13.4569C13.6811 0 13.8915 0.0396484 14.0878 0.119727C14.285 0.200195 14.4636 0.320312 14.6245 0.481055C14.7835 0.64043 14.9034 0.818555 14.9839 1.01562C15.0639 1.21191 15.1036 1.42207 15.1036 1.64629V3.13262C15.1737 3.15859 15.2456 3.18594 15.3198 3.21465C15.5106 3.28887 15.7016 3.36953 15.8928 3.45684C16.0905 3.54707 16.277 3.63926 16.4508 3.7334C16.5092 3.76484 16.5672 3.79707 16.6253 3.83027L17.5422 2.91602L17.5426 2.91582C17.7014 2.7543 17.8803 2.63203 18.0774 2.54863C18.2791 2.46328 18.4909 2.42109 18.7118 2.42109C18.9327 2.42109 19.1428 2.46289 19.3434 2.54766ZM11.9999 6.90352C12.3478 6.90352 12.6872 6.93672 13.0183 7.00273C13.3436 7.06777 13.6663 7.16758 13.9856 7.30234L13.9891 7.30391L13.9899 7.30234C14.2948 7.43398 14.5839 7.59121 14.8573 7.77441C15.1282 7.95586 15.3792 8.16074 15.6092 8.38867L15.6112 8.39082C15.8393 8.62109 16.0442 8.87187 16.2256 9.14297C16.4089 9.41641 16.5659 9.70547 16.6975 10.0104C16.7036 10.0248 16.709 10.0393 16.7139 10.0539C16.8401 10.3604 16.9348 10.6695 16.9969 10.9818C17.0633 11.3131 17.0961 11.6523 17.0961 12C17.0961 12.3479 17.0633 12.6873 16.9969 13.0184C16.9321 13.3439 16.8321 13.6662 16.6975 13.9857L16.696 13.9893L16.6975 13.99C16.5659 14.2949 16.4087 14.5838 16.2256 14.8572C16.044 15.1283 15.8391 15.3791 15.6112 15.6094L15.6092 15.6115C15.3788 15.8396 15.1282 16.0445 14.8569 16.226C14.5839 16.4092 14.2946 16.5662 13.9899 16.6978C13.9755 16.7039 13.961 16.7096 13.946 16.7143C13.6397 16.8406 13.3304 16.9352 13.0183 16.9975C12.6872 17.0637 12.3476 17.0967 11.9999 17.0967C11.6521 17.0967 11.3128 17.0637 10.9817 16.9975C10.6562 16.9324 10.3337 16.8324 10.0142 16.6978L10.0107 16.6963L10.0101 16.6978C9.70519 16.5662 9.41594 16.409 9.1427 16.226C8.87161 16.0445 8.62083 15.8396 8.39075 15.6115L8.3888 15.6094C8.16068 15.3789 7.9556 15.1283 7.77435 14.857C7.59134 14.5838 7.43412 14.2945 7.30268 13.99C7.29643 13.9756 7.29096 13.9611 7.28607 13.9463C7.15971 13.6398 7.06518 13.3307 7.00287 13.0184C6.93686 12.6873 6.90366 12.3479 6.90366 12C6.90366 11.6521 6.93666 11.3129 7.00287 10.9818C7.06791 10.6562 7.16791 10.3338 7.30268 10.0145L7.30404 10.0109L7.30268 10.0104C7.43412 9.70547 7.59154 9.41641 7.77435 9.14316C7.9558 8.87187 8.16068 8.62129 8.3888 8.39082L8.39095 8.38887C8.62102 8.16094 8.8718 7.95605 9.1427 7.77461C9.41613 7.5916 9.70539 7.43418 10.0103 7.30254C10.0247 7.29629 10.0392 7.29082 10.054 7.28613C10.3605 7.15977 10.6694 7.06543 10.9817 7.00312C11.3128 6.93672 11.6521 6.90352 11.9999 6.90352ZM12.8128 8.03398C12.5503 7.98144 12.2796 7.95527 11.9999 7.95527C11.7204 7.95527 11.4497 7.98144 11.187 8.03398C10.9319 8.08496 10.6884 8.15801 10.4564 8.25312C10.4462 8.2582 10.4359 8.26328 10.4251 8.26777C10.1716 8.37734 9.9384 8.50312 9.7259 8.64531C9.51184 8.78848 9.31379 8.95059 9.13137 9.13105C8.95071 9.31367 8.7886 9.51211 8.64524 9.72637C8.50306 9.93867 8.37728 10.1717 8.2679 10.4252L8.26653 10.4246C8.16478 10.6662 8.08743 10.9205 8.03392 11.1873C7.98158 11.4498 7.9554 11.7205 7.9554 12C7.9554 12.2795 7.98158 12.5502 8.03392 12.8129C8.0849 13.068 8.15814 13.3115 8.25325 13.5436C8.25833 13.5539 8.26341 13.5641 8.2679 13.5748C8.37728 13.8283 8.50306 14.0611 8.64505 14.2734C8.78841 14.4877 8.95051 14.6861 9.13137 14.8687C9.31379 15.0494 9.51203 15.2113 9.72609 15.3545C9.9384 15.4967 10.1714 15.6225 10.4251 15.732L10.4245 15.7334C10.6663 15.8352 10.9204 15.9127 11.1872 15.9658C11.4497 16.0184 11.7206 16.0443 12.0001 16.0443C12.2796 16.0443 12.5505 16.0182 12.813 15.9658C13.0683 15.9148 13.3116 15.8418 13.5438 15.7467C13.5538 15.7416 13.5643 15.7365 13.5751 15.732C13.8284 15.6225 14.0614 15.4967 14.2739 15.3545C14.488 15.2113 14.6862 15.0492 14.8686 14.8687C15.0495 14.6861 15.2116 14.4879 15.355 14.2736C15.4969 14.0613 15.6227 13.8283 15.7319 13.5748L15.7335 13.5754C15.8352 13.3338 15.9128 13.0795 15.9661 12.8129C16.0184 12.5502 16.0446 12.2795 16.0446 12C16.0446 11.7205 16.0182 11.4498 15.9661 11.1873C15.9149 10.932 15.8421 10.6887 15.7467 10.4564C15.7415 10.4463 15.7368 10.4359 15.7319 10.4252C15.6227 10.1717 15.4969 9.93867 15.3546 9.72637C15.2116 9.51211 15.0493 9.31367 14.8686 9.13125C14.6862 8.95078 14.488 8.78867 14.2739 8.64551C14.0614 8.50332 13.8284 8.37754 13.5751 8.26797L13.5755 8.2666C13.3339 8.16484 13.0798 8.0873 12.8128 8.03398Z" fill="black"/>
</g>
<defs>
<clipPath id="clip0_2081_7991">
<rect width="24" height="24" fill="white"/>
</clipPath>
</defs>
</svg>
