<svg width="18" height="19" viewBox="0 0 18 19" fill="none" xmlns="http://www.w3.org/2000/svg">
<g clip-path="url(#clip0_1687_4513)">
<path fill-rule="evenodd" clip-rule="evenodd" d="M8.72228 0.52028H8.63228C7.85474 0.520254 7.20639 0.520237 6.69168 0.589433C6.1484 0.66248 5.6579 0.823156 5.26374 1.21731C4.86958 1.61147 4.70891 2.10197 4.63586 2.64525C4.56666 3.15996 4.56668 3.80832 4.56671 4.58585V4.65311C2.81761 4.71034 1.76728 4.91473 1.0373 5.64471C0.0234376 6.65858 0.0234375 8.29039 0.0234375 11.5539C0.0234375 14.8175 0.0234376 16.4493 1.0373 17.4631C2.05116 18.477 3.68294 18.477 6.94652 18.477H10.4081C13.6716 18.477 15.3034 18.477 16.3172 17.4631C17.3311 16.4493 17.3311 14.8175 17.3311 11.5539C17.3311 8.29039 17.3311 6.65858 16.3172 5.64471C15.5873 4.91473 14.537 4.71034 12.7879 4.65311V4.58587C12.7879 3.80834 12.7879 3.15996 12.7187 2.64525C12.6457 2.10197 12.485 1.61147 12.0908 1.21731C11.6967 0.823156 11.2062 0.66248 10.6629 0.589433C10.1482 0.520237 9.49983 0.520254 8.72228 0.52028ZM11.4898 4.63249V4.63086C11.4898 3.79662 11.4884 3.23623 11.4322 2.81822C11.3785 2.41887 11.2857 2.24797 11.173 2.13519C11.0602 2.02241 10.8893 1.92963 10.4899 1.87594C10.0719 1.81974 9.51152 1.81836 8.67728 1.81836C7.84305 1.81836 7.28263 1.81974 6.86464 1.87594C6.4653 1.92963 6.2944 2.02241 6.18162 2.13519C6.06884 2.24797 5.97606 2.41887 5.92237 2.81822C5.86617 3.23623 5.86478 3.79662 5.86478 4.63086V4.63249C6.20404 4.63086 6.56408 4.63086 6.94652 4.63086H10.4081C10.7905 4.63086 11.1506 4.63086 11.4898 4.63249ZM13.0042 7.22701C13.0042 7.70495 12.6168 8.09239 12.1388 8.09239C11.6609 8.09239 11.2734 7.70495 11.2734 7.22701C11.2734 6.74908 11.6609 6.36163 12.1388 6.36163C12.6168 6.36163 13.0042 6.74908 13.0042 7.22701ZM5.21575 8.09239C5.69368 8.09239 6.08113 7.70495 6.08113 7.22701C6.08113 6.74908 5.69368 6.36163 5.21575 6.36163C4.73781 6.36163 4.35036 6.74908 4.35036 7.22701C4.35036 7.70495 4.73781 8.09239 5.21575 8.09239Z" fill="#009FF4"/>
</g>
<defs>
<clipPath id="clip0_1687_4513">
<rect width="17.6538" height="18" fill="white" transform="translate(0 0.5)"/>
</clipPath>
</defs>
</svg>
