<svg width="20" height="20" viewBox="0 0 20 20" fill="none" xmlns="http://www.w3.org/2000/svg">
<path d="M0.980198 15.9191C0.352773 16.5464 0.000189474 17.3971 0 18.2843C0 19.2326 0.768737 20.0013 1.71702 20.0013C2.6042 20.0012 3.45497 19.6486 4.08221 19.0211L13.6906 9.41278C14.5472 8.55618 14.5472 7.16737 13.6906 6.31077C12.834 5.45417 11.4452 5.45417 10.5886 6.31077L0.980198 15.9191Z" fill="black"/>
<path d="M19.3554 0.643094C19.1517 0.439222 18.9099 0.27749 18.6437 0.167143C18.3775 0.0567968 18.0921 0 17.804 0C17.5158 0 17.2305 0.0567968 16.9643 0.167143C16.698 0.27749 16.4562 0.439222 16.2525 0.643094L14.8711 2.02494C14.0146 2.88169 14.0147 4.27053 14.8713 5.12717C15.7279 5.9838 17.1168 5.9839 17.9735 5.12739L19.3554 3.74594C19.5593 3.54228 19.721 3.30044 19.8313 3.03423C19.9417 2.76803 19.9985 2.48269 19.9985 2.19452C19.9985 1.90635 19.9417 1.62101 19.8313 1.3548C19.721 1.0886 19.5593 0.846754 19.3554 0.643094Z" fill="black"/>
</svg>
