<svg width="18" height="18" viewBox="0 0 18 18" fill="none" xmlns="http://www.w3.org/2000/svg">
<path d="M13.125 5.99937C14.7817 5.99937 16.1249 7.34248 16.1249 8.99906C16.1249 10.6556 14.7817 11.9987 13.125 11.9987C11.4683 11.9987 10.1251 10.6556 10.1251 8.99906C10.1251 7.34248 11.4683 5.99937 13.125 5.99937ZM9.00012 5.99937C10.6568 5.99937 12 4.65626 12 2.99969C12 1.34311 10.6568 0 9.00012 0C7.34342 0 6.00021 1.34311 6.00021 2.99969C6.00021 4.65626 7.34342 5.99937 9.00012 5.99937ZM4.87525 11.9987C6.53195 11.9987 7.87516 10.6556 7.87516 8.99906C7.87516 7.34248 6.53195 5.99937 4.87525 5.99937C3.21854 5.99937 1.87533 7.34248 1.87533 8.99906C1.87533 10.6556 3.21854 11.9987 4.87525 11.9987ZM17.9654 16.5965C17.3909 14.331 15.3239 12.7487 12.9375 12.7487C11.3761 12.7487 9.9601 13.4348 9.00012 14.5395C8.0409 13.4356 6.62495 12.7487 5.06274 12.7487C2.67706 12.7487 0.609371 14.331 0.0348877 16.5965C-0.118108 17.1987 0.246382 17.8106 0.848614 17.9636C1.4516 18.1173 2.06358 17.7521 2.21582 17.15C2.38307 16.49 2.78431 15.9381 3.31829 15.5571L4.38026 16.9175C4.7335 17.3592 5.40548 17.3592 5.75947 16.9175L6.83044 15.5721C7.35317 15.9531 7.74466 16.4998 7.90966 17.1507C7.91191 17.1604 8.1144 17.9996 9.00088 17.9996C9.88735 17.9996 10.0883 17.1612 10.0906 17.1507C10.2578 16.4908 10.6591 15.9396 11.1931 15.5579L12.255 16.9182C12.6083 17.3599 13.2803 17.3599 13.6342 16.9182L14.7052 15.5729C15.2287 15.9538 15.6194 16.5005 15.7844 17.1515C15.9367 17.7536 16.5524 18.1181 17.1509 17.9651C17.7539 17.8121 18.1176 17.2002 17.9654 16.598V16.5965Z" fill="white"/>
</svg>
