<svg width="20" height="24" viewBox="0 0 20 24" fill="none" xmlns="http://www.w3.org/2000/svg">
<path d="M19 3.99999H15.9C15.4216 1.67358 13.3751 0.003 11 0H8.99997C6.62485 0.003 4.57838 1.67358 4.09997 3.99999H0.999986C0.447704 3.99999 0 4.44769 0 4.99998C0 5.55226 0.447704 6.00001 0.999986 6.00001H1.99997V19C2.0033 21.7601 4.23994 23.9968 7 24H13C15.7601 23.9968 17.9967 21.7601 18 19V6.00001H19C19.5523 6.00001 20 5.55231 20 5.00002C20 4.44774 19.5523 3.99999 19 3.99999ZM9.00001 17C9.00001 17.5523 8.55231 18 8.00003 18C7.4477 18 7 17.5523 7 17V11C7 10.4478 7.4477 10 7.99998 10C8.55226 10 8.99997 10.4478 8.99997 11L9.00001 17ZM13 17C13 17.5523 12.5523 18 12 18C11.4477 18 11 17.5523 11 17V11C11 10.4478 11.4477 10 12 10C12.5523 10 13 10.4478 13 11V17ZM6.17101 3.99999C6.59635 2.80229 7.72904 2.00152 9.00001 1.99997H11C12.271 2.00152 13.4037 2.80229 13.829 3.99999H6.17101Z" fill="#202529"/>
</svg>
