<svg width="18" height="18" viewBox="0 0 18 18" fill="none" xmlns="http://www.w3.org/2000/svg">
<path d="M9 12C8.40666 12 7.82664 11.8241 7.33329 11.4944C6.83994 11.1648 6.45542 10.6962 6.22836 10.1481C6.0013 9.59987 5.94189 8.99667 6.05764 8.41473C6.1734 7.83279 6.45912 7.29824 6.87868 6.87868C7.29824 6.45912 7.83279 6.1734 8.41473 6.05764C8.99667 5.94189 9.59987 6.0013 10.148 6.22836C10.6962 6.45542 11.1648 6.83994 11.4944 7.33329C11.8241 7.82664 12 8.40666 12 9C12 9.79565 11.6839 10.5587 11.1213 11.1213C10.5587 11.6839 9.79565 12 9 12ZM4.26225 12H0.75C0.551088 12 0.360322 11.921 0.21967 11.7803C0.0790176 11.6397 0 11.4489 0 11.25C0.00710688 10.1731 0.398793 9.13414 1.10442 8.32056C1.81004 7.50698 2.78315 6.97232 3.84825 6.813C3.97202 6.79566 4.09815 6.80952 4.2152 6.85333C4.33224 6.89714 4.43649 6.9695 4.51846 7.06383C4.60043 7.15817 4.65752 7.2715 4.68455 7.39352C4.71159 7.51553 4.7077 7.64237 4.67325 7.7625C4.55832 8.16496 4.50001 8.58146 4.5 9C4.50022 9.66732 4.65042 10.3261 4.9395 10.9275C4.99387 11.0417 5.0185 11.1677 5.01109 11.2939C5.00368 11.4202 4.96448 11.5425 4.89713 11.6495C4.82978 11.7565 4.73646 11.8448 4.62585 11.906C4.51525 11.9673 4.39095 11.9996 4.2645 12H4.26225ZM12.75 18H5.25C5.05109 18 4.86032 17.921 4.71967 17.7803C4.57902 17.6397 4.5 17.4489 4.5 17.25C4.5 16.0565 4.97411 14.9119 5.81802 14.068C6.66193 13.2241 7.80653 12.75 9 12.75C10.1935 12.75 11.3381 13.2241 12.182 14.068C13.0259 14.9119 13.5 16.0565 13.5 17.25C13.5 17.4489 13.421 17.6397 13.2803 17.7803C13.1397 17.921 12.9489 18 12.75 18ZM13.5 6C12.9067 6 12.3266 5.82405 11.8333 5.49441C11.3399 5.16477 10.9554 4.69623 10.7284 4.14805C10.5013 3.59987 10.4419 2.99667 10.5576 2.41473C10.6734 1.83279 10.9591 1.29824 11.3787 0.878681C11.7982 0.459123 12.3328 0.173401 12.9147 0.0576455C13.4967 -0.0581101 14.0999 0.00129984 14.648 0.228363C15.1962 0.455426 15.6648 0.839943 15.9944 1.33329C16.3241 1.82664 16.5 2.40666 16.5 3C16.5 3.79565 16.1839 4.55871 15.6213 5.12132C15.0587 5.68393 14.2956 6 13.5 6ZM4.5 6C3.90666 6 3.32664 5.82405 2.83329 5.49441C2.33994 5.16477 1.95542 4.69623 1.72836 4.14805C1.5013 3.59987 1.44189 2.99667 1.55764 2.41473C1.6734 1.83279 1.95912 1.29824 2.37868 0.878681C2.79824 0.459123 3.33279 0.173401 3.91473 0.0576455C4.49667 -0.0581101 5.09987 0.00129984 5.64805 0.228363C6.19623 0.455426 6.66476 0.839943 6.99441 1.33329C7.32405 1.82664 7.5 2.40666 7.5 3C7.5 3.79565 7.18393 4.55871 6.62132 5.12132C6.05871 5.68393 5.29565 6 4.5 6ZM17.25 12H13.7377C13.6113 11.9996 13.487 11.9673 13.3764 11.906C13.2658 11.8448 13.1725 11.7565 13.1051 11.6495C13.0378 11.5425 12.9986 11.4202 12.9912 11.2939C12.9837 11.1677 13.0084 11.0417 13.0627 10.9275C13.3511 10.3259 13.5005 9.66714 13.5 9C13.4988 8.58128 13.4392 8.16478 13.323 7.7625C13.2883 7.64203 13.2844 7.51479 13.3117 7.39242C13.3389 7.27005 13.3963 7.15645 13.4787 7.06201C13.5612 6.96756 13.666 6.89529 13.7835 6.85179C13.9011 6.80829 14.0277 6.79495 14.1517 6.813C15.2168 6.97232 16.19 7.50698 16.8956 8.32056C17.6012 9.13414 17.9929 10.1731 18 11.25C18 11.4489 17.921 11.6397 17.7803 11.7803C17.6397 11.921 17.4489 12 17.25 12Z" fill="#5D7285"/>
</svg>
