<svg width="12" height="12" viewBox="0 0 12 12" fill="none" xmlns="http://www.w3.org/2000/svg">
<g clip-path="url(#clip0_1424_2829)">
<path d="M5.45312 6.51367C5.34063 6.51367 5.24688 6.41992 5.24688 6.30742C5.24688 6.19492 5.34063 6.10117 5.45312 6.10117H6.40937C6.52187 6.10117 6.61563 6.19492 6.61563 6.30742C6.61563 6.41992 6.52187 6.51367 6.40937 6.51367H5.45312ZM2.11562 4.11367C1.94687 4.11367 1.79688 3.96367 1.79688 3.79492C1.79688 3.62617 1.94687 3.47617 2.11562 3.47617H2.40625C2.50937 3.47617 2.59375 3.40117 2.59375 3.29805C2.67813 2.13555 3.38125 1.07617 4.43125 0.551172C4.47813 0.523047 4.53437 0.513672 4.57188 0.513672C4.74063 0.513672 4.89062 0.663672 4.89062 0.832422V1.48867C4.89062 1.5918 4.975 1.67617 5.07812 1.67617C5.18125 1.67617 5.26562 1.5918 5.26562 1.48867V0.523047C5.26562 0.363672 5.3875 0.223047 5.5375 0.204297C5.65938 0.185547 5.79063 0.185547 5.9125 0.185547C6.05313 0.185547 6.20312 0.194922 6.325 0.204297C6.48437 0.223047 6.59687 0.354297 6.59687 0.523047V1.4793C6.59687 1.58242 6.68125 1.6668 6.78437 1.6668C6.8875 1.6668 6.97187 1.58242 6.97187 1.4793V0.832422C6.97187 0.663672 7.12187 0.513672 7.29062 0.513672C7.32812 0.513672 7.38437 0.523047 7.44062 0.551172C8.50937 1.1043 9.19375 2.12617 9.27812 3.29805C9.2875 3.40117 9.3625 3.47617 9.46562 3.47617H9.75625C9.925 3.47617 10.075 3.62617 10.075 3.79492C10.075 3.96367 9.925 4.11367 9.75625 4.11367H2.11562ZM8.7625 3.55117C8.73437 3.47617 8.725 3.41055 8.71562 3.33555C8.65937 2.51992 8.22813 1.76055 7.5625 1.27305V1.4793C7.5625 1.8918 7.225 2.2293 6.8125 2.2293C6.4 2.2293 6.0625 1.8918 6.0625 1.4793V0.748047H5.8375V1.46992C5.8375 1.88242 5.5 2.21992 5.0875 2.21992C4.675 2.21992 4.3375 1.88242 4.3375 1.46992V1.2543C3.64375 1.7418 3.2125 2.51055 3.14687 3.33555C3.1375 3.41055 3.12812 3.47617 3.1 3.55117H8.7625Z" fill="#009FF4"/>
<path d="M0.906561 11.857C0.662811 11.857 0.437811 11.7539 0.287811 11.5758C0.156561 11.4164 0.100311 11.2102 0.147186 11.0133C0.522186 9.09141 2.27531 7.51641 4.55344 7.06641C3.68156 6.50391 3.14719 5.47266 3.14719 4.31953V4.25391H8.73469V4.31953C8.73469 5.46328 8.20031 6.50391 7.31906 7.06641C9.59719 7.52578 11.3503 9.10078 11.7253 11.0133C11.7628 11.2102 11.7159 11.4164 11.5847 11.5758C11.4347 11.7539 11.2097 11.857 10.9659 11.857H0.906561ZM5.93156 7.48828C4.64719 7.48828 3.40969 7.86328 2.44406 8.55703C1.51594 9.22266 0.897186 10.132 0.700311 11.1164C0.690936 11.1633 0.709686 11.2008 0.728436 11.2102C0.775311 11.2664 0.831561 11.2945 0.906561 11.2945H10.9753C11.0503 11.2945 11.1159 11.2664 11.1534 11.2195C11.1628 11.2102 11.1909 11.1727 11.1722 11.1258C10.9847 10.132 10.3659 9.22266 9.42844 8.55703C8.45344 7.86328 7.21594 7.48828 5.93156 7.48828ZM3.73781 4.81641C3.94406 6.03516 4.85344 6.91641 5.92219 6.91641C6.99094 6.91641 7.90031 6.03516 8.10656 4.81641H3.73781Z" fill="#009FF4"/>
</g>
<defs>
<clipPath id="clip0_1424_2829">
<rect width="11.8" height="12" fill="white"/>
</clipPath>
</defs>
</svg>
